<?xml version="1.0" standalone="no"?>
<!DOCTYPE svg PUBLIC "-//W3C//DTD SVG 20010904//EN"
 "http://www.w3.org/TR/2001/REC-SVG-20010904/DTD/svg10.dtd">
<svg version="1.0" xmlns="http://www.w3.org/2000/svg"
 width="450.000000pt" height="232.000000pt" viewBox="0 0 450.000000 232.000000"
 preserveAspectRatio="xMidYMid meet">
<metadata>
Created by potrace 1.10, written by Peter Selinger 2001-2011
</metadata>
<g transform="translate(0.000000,232.000000) scale(0.050000,-0.050000)"
fill="inherit" stroke="">
<path d="M1295 4626 c36 -5 94 -5 130 0 36 4 7 8 -65 8 -71 0 -101 -4 -65 -8z"/>
<path d="M1560 4621 c39 -7 111 -12 160 -11 50 0 96 -8 102 -17 7 -9 39 -3 70
14 55 29 46 31 -172 28 -126 -1 -198 -8 -160 -14z"/>
<path d="M2081 4633 c5 -5 99 -15 209 -23 233 -16 296 -21 465 -41 88 -10 125
-7 125 9 0 12 14 22 31 22 17 0 26 -8 20 -19 -10 -15 20 -16 108 -2 5 0 -1 11
-13 23 -29 29 -326 46 -326 19 0 -12 -10 -21 -21 -21 -12 0 -16 9 -9 20 17 28
-37 25 -66 -4 -16 -16 -24 -17 -24 -2 0 15 -85 23 -254 25 -140 1 -250 -1
-245 -6z"/>
<path d="M3562 4632 c4 -5 92 -14 195 -20 103 -7 207 -17 230 -22 123 -26 395
-30 381 -5 -12 19 -9 20 13 2 16 -12 83 -34 149 -47 169 -35 168 -35 253 -19
63 11 77 8 79 -19 1 -20 5 -23 11 -7 6 14 26 25 45 25 19 0 45 11 58 24 23 23
33 5 27 -46 -2 -24 101 -1 135 30 19 18 43 32 54 32 10 0 5 -9 -12 -20 -24
-15 -19 -19 22 -20 29 0 78 -9 110 -20 105 -35 248 -36 268 -1 16 27 19 26 19
-5 1 -20 10 -31 21 -24 12 7 16 20 10 29 -5 9 4 22 20 28 18 7 30 0 30 -18 0
-31 125 -29 208 3 24 9 34 7 26 -5 -7 -11 26 -19 82 -19 52 0 157 -6 234 -15
295 -34 326 -32 335 19 8 38 3 43 -25 28 -18 -10 -64 -13 -102 -8 -37 6 -103
10 -145 10 -42 0 -100 9 -128 20 -33 13 -58 13 -71 0 -13 -13 -35 -9 -64 10
-39 25 -47 25 -69 0 -29 -36 -121 -3 -121 42 0 16 8 23 19 17 10 -6 24 -3 31
9 7 11 -9 20 -37 20 -39 0 -47 -8 -39 -40 10 -38 2 -39 -157 -32 -169 8 -237
23 -237 52 0 9 -27 6 -61 -6 -43 -17 -65 -17 -75 -2 -18 28 -84 28 -84 0 0
-12 -8 -10 -18 5 -12 19 -32 22 -65 11 -62 -22 -137 -24 -124 -4 5 9 -14 16
-42 16 -28 0 -51 -9 -51 -21 0 -14 -12 -14 -39 0 -36 20 -1319 32 -1299 13z"/>
<path d="M6153 4625 c-5 -8 134 -16 309 -18 175 -1 318 6 318 15 0 22 -614 24
-627 3z"/>
<path d="M6942 4629 c-1 -12 -34 -18 -77 -14 -71 7 -73 5 -36 -24 22 -18 51
-27 65 -22 14 5 26 -1 27 -15 0 -13 10 -8 21 12 11 19 16 46 11 60 -5 13 -11
15 -11 3z"/>
<path d="M7360 4618 c187 -28 700 -42 700 -19 0 12 13 21 29 21 18 0 25 -12
18 -30 -8 -22 -2 -27 21 -18 17 7 27 20 21 29 -5 9 24 20 66 24 41 5 -159 9
-445 9 -352 1 -485 -4 -410 -16z"/>
<path d="M8306 4627 c25 -24 478 -39 514 -17 11 7 20 5 20 -4 0 -9 36 -17 80
-19 56 -1 80 6 80 25 0 23 -66 28 -353 28 -195 0 -348 -6 -341 -13z"/>
<path d="M7064 4489 c-22 -25 -12 -29 70 -26 53 1 76 6 51 11 -25 5 -45 17
-45 27 0 29 -47 21 -76 -12z"/>
<path d="M7233 4471 c-30 -28 -48 -52 -39 -54 46 -7 196 -14 352 -16 97 -1
171 -10 165 -19 -20 -32 371 -75 477 -53 38 9 64 4 75 -13 13 -20 16 -20 17
-1 0 14 9 25 20 25 11 0 20 -15 20 -34 0 -26 5 -29 24 -10 28 28 64 32 47 5
-18 -29 14 -39 151 -49 71 -4 202 -15 293 -23 l165 -14 0 54 c0 52 -4 54 -95
51 -125 -5 -143 -1 -95 20 38 16 38 17 -5 19 -29 0 -45 14 -46 36 0 31 -3 31
-25 5 -14 -17 -49 -28 -84 -25 -33 3 -120 7 -193 9 -102 2 -131 9 -123 29 7
20 -10 27 -63 27 -44 0 -68 -8 -61 -20 19 -30 -7 -60 -41 -47 -16 6 -24 19
-19 28 26 42 -212 64 -416 38 -53 -7 -101 -4 -108 7 -6 10 -46 14 -89 8 -42
-6 -77 -3 -77 7 0 9 -26 9 -57 0 -61 -18 -92 -7 -105 35 -7 19 -25 12 -65 -25z"/>
<path d="M6635 4473 c-59 -22 -74 -53 -25 -53 17 0 30 11 30 25 0 15 6 17 15
5 19 -25 85 -31 85 -8 0 10 19 7 43 -7 34 -20 44 -20 52 1 7 19 16 20 36 3 30
-25 75 -7 64 25 -9 28 -231 34 -300 9z"/>
<path d="M8885 4426 c-25 -5 -45 -17 -45 -27 0 -26 25 -24 103 10 66 29 42 36
-58 17z"/>
<path d="M7436 4239 c-79 -20 37 -34 155 -19 l99 12 -104 9 c-57 5 -125 4
-150 -2z"/>
<path d="M964 3995 c-70 -35 -71 -36 -14 -25 33 6 98 17 145 23 47 7 85 20 85
30 0 30 -135 12 -216 -28z"/>
<path d="M1320 4019 c0 -12 -9 -16 -20 -9 -11 7 -20 3 -20 -8 0 -37 37 -43 68
-11 40 40 40 49 2 49 -16 0 -30 -10 -30 -21z"/>
<path d="M5703 3939 c51 -27 217 -43 217 -20 0 11 -20 22 -45 23 -25 1 -80 4
-122 7 -42 3 -65 -2 -50 -10z"/>
<path d="M6114 3907 c9 -24 99 -50 199 -57 34 -3 86 -10 114 -18 29 -7 261
-18 518 -24 256 -6 542 -14 635 -19 159 -8 256 -8 614 -3 79 1 139 9 134 18
-6 9 4 16 22 16 18 0 27 -8 21 -18 -16 -27 40 -42 155 -42 137 0 92 55 -57 70
-54 5 -139 15 -189 21 -170 21 -256 24 -279 10 -12 -8 -63 -8 -113 -1 -67 10
-99 7 -120 -14 -15 -16 -28 -21 -28 -11 0 19 -20 24 -150 33 -44 3 -84 8 -90
11 -5 3 -226 9 -490 12 -264 4 -524 12 -577 19 -61 7 -107 3 -125 -12 -17 -14
-28 -15 -28 -2 0 11 -39 23 -87 27 -60 5 -85 0 -79 -16z"/>
<path d="M1620 3901 c0 -8 -27 -10 -60 -5 -38 5 -60 0 -60 -15 0 -13 -10 -17
-23 -9 -14 9 -18 5 -9 -8 7 -12 25 -18 40 -12 15 6 75 13 134 17 162 9 166 10
150 26 -19 19 -172 24 -172 6z"/>
<path d="M2089 3883 c-5 -6 -57 -12 -114 -14 -147 -5 -159 -7 -147 -26 6 -10
72 -19 146 -21 75 -2 163 -7 196 -11 224 -27 316 -29 353 -9 23 12 36 13 30 2
-7 -11 0 -30 15 -43 21 -16 32 -17 42 -1 10 16 21 16 40 0 19 -16 28 -15 35 4
6 19 20 20 56 4 30 -13 80 -15 136 -5 49 9 99 10 111 1 12 -9 69 -15 127 -14
58 0 105 -7 105 -18 0 -10 16 -5 35 12 54 46 85 60 85 39 0 -11 -16 -25 -35
-30 -19 -6 19 -8 85 -6 66 3 134 9 150 14 17 5 28 -2 25 -15 -3 -19 9 -20 46
-5 34 12 47 12 39 -1 -7 -11 -3 -20 9 -20 11 0 21 9 21 20 0 12 20 16 45 10
85 -21 216 -25 227 -7 6 10 19 12 30 6 10 -6 86 -13 168 -15 105 -2 152 -11
160 -31 6 -15 23 -22 39 -16 19 7 25 1 18 -18 -6 -16 -1 -29 11 -29 12 0 22 8
22 18 0 9 18 22 40 28 22 6 40 1 40 -10 0 -14 9 -13 26 1 15 12 35 14 45 5 11
-9 44 -6 75 7 96 41 21 70 -208 79 -114 5 -221 14 -238 20 -16 6 -90 9 -163 7
-73 -3 -131 0 -127 5 3 6 -45 12 -107 13 -66 2 -118 -5 -127 -19 -9 -15 -18
-12 -27 12 -15 40 -61 45 -76 9 -8 -20 -10 -20 -11 0 -2 30 -94 34 -112 5 -7
-11 -26 -20 -42 -20 -17 0 -25 9 -18 20 17 27 -17 25 -45 -3 -17 -17 -31 -14
-54 10 -25 24 -44 27 -84 12 -48 -18 -135 -12 -237 18 -22 6 -100 11 -173 12
-74 0 -130 6 -125 15 5 8 -15 2 -45 -14 -30 -15 -62 -23 -71 -18 -9 6 -16 -1
-16 -14 0 -17 -11 -15 -35 6 -19 17 -53 28 -75 25 -113 -19 -216 -15 -202 7
10 18 -102 24 -119 7z"/>
<path d="M560 3862 c0 -10 -11 -16 -25 -15 -43 5 -40 -34 4 -50 34 -13 41 -8
41 34 0 27 -4 49 -10 49 -5 0 -10 -8 -10 -18z"/>
<path d="M4684 3699 c-34 -54 -30 -65 16 -53 22 6 40 2 40 -9 0 -11 9 -14 21
-6 11 7 44 -3 72 -21 29 -19 46 -24 38 -12 -7 12 -4 22 7 22 11 0 26 -10 33
-22 8 -13 39 -17 72 -10 37 7 54 4 47 -8 -18 -29 77 -24 109 5 18 17 23 17 14
1 -8 -13 -5 -29 7 -36 11 -7 20 -4 20 5 0 10 27 18 60 18 33 0 60 -8 60 -18 0
-9 9 -12 20 -5 11 7 36 3 55 -8 35 -21 28 -24 -56 -29 -22 -2 -49 -16 -59 -33
-17 -27 -19 -27 -20 0 0 19 -6 22 -15 9 -17 -23 -98 -20 -265 12 -191 35 -228
38 -243 15 -26 -43 -103 -41 -92 1 8 29 -6 43 -58 59 -37 11 -67 13 -67 4 0
-33 -80 -36 -99 -3 -15 28 -21 25 -40 -24 -19 -50 -28 -55 -83 -42 -48 10 -60
7 -53 -14 6 -15 20 -25 33 -22 12 3 22 -3 22 -13 0 -10 73 -19 162 -20 89 -1
172 -9 185 -17 12 -8 46 -17 73 -20 52 -5 247 -20 350 -27 33 -2 86 3 118 12
45 12 54 10 42 -10 -13 -20 -2 -23 47 -14 49 10 63 6 63 -18 0 -27 4 -27 32 1
33 34 261 39 281 7 12 -20 -66 -30 -123 -16 -49 12 -151 -2 -141 -18 11 -18
219 -44 381 -47 44 -1 86 -12 94 -23 8 -13 29 -7 54 17 37 33 42 33 54 4 14
-36 68 -46 68 -12 0 12 -8 16 -19 10 -10 -6 -24 -2 -31 9 -13 21 88 69 106 51
6 -6 2 -11 -8 -11 -11 0 -21 -22 -23 -49 -4 -48 -2 -49 120 -38 69 6 141 11
160 10 45 -1 36 42 -15 66 -33 16 -25 21 50 27 50 3 99 15 109 25 23 23 57 25
44 4 -5 -8 69 -17 164 -19 273 -5 323 -11 323 -34 1 -15 5 -15 15 1 18 28 149
26 170 -2 9 -14 14 -13 15 2 0 14 17 19 41 13 37 -10 36 -13 -15 -41 -53 -28
-88 -37 -174 -42 -21 -2 -33 -8 -27 -14 24 -25 748 -33 904 -11 110 16 162 16
171 2 7 -12 28 -16 47 -9 57 22 107 -6 65 -37 -28 -20 10 -26 212 -32 519 -14
576 -7 576 71 0 35 -9 48 -28 41 -15 -6 -38 0 -52 13 -19 18 -27 17 -34 -2 -5
-14 -22 -25 -37 -25 -16 0 -23 -12 -17 -29 12 -30 -42 -51 -117 -46 -42 2 -47
35 -6 35 16 0 38 17 49 37 15 27 13 36 -9 36 -16 0 -29 -12 -29 -28 0 -50 -49
-14 -69 50 -18 59 -24 62 -115 60 -104 -2 -164 -40 -102 -64 19 -7 38 -4 42 8
10 28 64 27 64 -1 0 -13 18 -18 40 -12 30 8 40 0 40 -28 0 -21 7 -36 15 -33 8
3 17 -4 20 -15 10 -38 -157 -26 -182 13 -12 20 -31 37 -40 37 -10 0 -7 -13 7
-30 20 -24 19 -30 -6 -30 -18 0 -37 8 -43 18 -6 10 -28 14 -49 8 -21 -5 -44 1
-52 13 -10 17 -21 17 -42 0 -15 -13 -29 -21 -30 -16 -15 74 -13 78 24 66 22
-7 38 -2 38 12 0 15 -30 20 -90 14 -74 -7 -91 -3 -101 28 -16 51 -43 47 -41
-6 3 -59 -28 -64 -88 -15 -27 23 -40 36 -27 30 13 -7 22 1 19 17 -5 37 -32 66
-32 34 0 -13 -9 -23 -20 -23 -11 0 -18 8 -15 18 4 15 -8 24 -30 22 -137 -12
-376 -8 -380 6 -4 12 -25 10 -52 -5 -47 -24 -115 4 -93 39 15 24 -86 37 -160
20 -36 -8 -77 -8 -91 1 -14 8 -44 8 -67 0 -23 -9 -68 -7 -99 4 -44 16 -62 14
-77 -7 -16 -23 -18 -22 -10 3 6 18 -7 42 -28 56 -21 13 -38 16 -38 6 0 -10
-23 -13 -50 -8 -28 5 -64 -1 -80 -15 -17 -14 -44 -18 -65 -9 -19 8 -46 14 -58
12 -13 -2 -30 5 -37 17 -8 14 -25 14 -51 -1 -29 -15 -39 -14 -40 5 0 16 -7 14
-20 -7 -23 -40 -93 -27 -106 20 -8 31 -9 31 -11 0 -1 -23 -25 -35 -80 -40 -44
-4 -79 -3 -78 3 3 43 -13 61 -69 76 -36 10 -78 12 -95 3 -16 -8 -73 -3 -125
10 -52 14 -95 17 -95 7 0 -10 -8 -14 -17 -8 -10 6 -88 16 -174 23 -85 6 -170
19 -187 28 -18 9 -84 15 -147 14 -63 -2 -115 2 -115 7 0 6 -29 9 -65 9 -36 -1
-78 5 -95 12 -80 38 -192 37 -216 -2z m896 -160 c0 -20 120 -14 155 8 28 17
65 1 65 -28 0 -11 -18 -19 -40 -19 -22 0 -40 -13 -40 -29 0 -16 -9 -34 -20
-41 -11 -7 -14 1 -8 19 8 20 1 31 -20 31 -18 0 -32 -9 -32 -20 0 -11 -13 -20
-29 -20 -17 0 -25 12 -19 27 8 21 -4 26 -46 19 -54 -8 -54 -7 -17 23 34 27 21
41 -24 26 -31 -11 -20 -60 16 -70 21 -5 33 -18 27 -28 -7 -11 -23 -10 -39 4
-15 12 -36 17 -47 10 -17 -10 -55 64 -39 78 55 44 157 50 157 10z m2167 -204
c-12 -20 0 -19 62 5 28 10 51 11 51 2 0 -23 -78 -48 -140 -45 -27 2 -63 -3
-80 -10 -54 -23 -80 -24 -80 -1 0 15 -7 15 -24 -2 -13 -13 -33 -24 -44 -24
-11 0 -2 14 19 30 36 29 34 30 -36 18 -49 -8 -75 -5 -75 10 0 28 110 29 162 1
21 -11 37 -14 36 -5 -5 32 3 36 80 36 43 0 74 -7 69 -15z m-1447 -58 c0 -9
-41 -16 -91 -14 -50 2 -80 10 -67 18 14 9 36 11 51 5 15 -6 32 5 39 22 13 34
68 9 68 -31z"/>
<path d="M1846 3706 c-42 -6 -60 -17 -54 -34 11 -29 108 -19 108 12 0 10 10
12 23 4 14 -9 18 -5 9 9 -8 13 -16 22 -18 20 -2 -2 -33 -7 -68 -11z"/>
<path d="M2235 3685 c-19 -5 -35 -17 -35 -27 0 -13 12 -13 33 -1 20 11 60 11
102 -1 65 -18 106 -10 80 16 -14 14 -133 23 -180 13z"/>
<path d="M93 3635 c7 -11 -5 -14 -29 -6 -22 7 -46 4 -52 -6 -7 -10 12 -25 41
-32 33 -8 59 -4 68 10 10 17 16 17 23 -3 6 -18 13 -16 22 9 8 21 6 30 -6 23
-11 -7 -20 -4 -20 5 0 10 -13 18 -29 18 -16 0 -24 -8 -18 -18z"/>
<path d="M3484 3639 c4 -12 14 -21 22 -20 7 0 28 1 44 1 17 0 30 9 30 20 0 11
-23 20 -52 20 -28 0 -48 -10 -44 -21z"/>
<path d="M3628 3636 c-6 -9 -2 -16 7 -16 10 0 18 -12 18 -26 0 -28 -96 -30
-340 -4 -148 15 -281 -1 -262 -31 10 -17 165 -10 184 9 4 4 39 -8 78 -27 53
-26 108 -33 214 -27 79 4 188 9 243 12 70 4 107 -3 123 -24 18 -25 32 -26 74
-7 41 19 55 18 67 -3 33 -55 166 -55 166 -1 0 40 10 49 53 49 30 0 48 6 41 13
-18 18 -151 21 -229 5 -40 -9 -65 -6 -65 7 0 12 -11 11 -28 -4 -21 -17 -32
-17 -42 -1 -8 13 -27 18 -42 12 -15 -6 -28 -2 -28 9 0 20 37 26 117 19 32 -2
45 5 39 23 -10 30 -371 42 -388 13z"/>
<path d="M2556 3621 c25 -11 81 -23 125 -26 43 -3 79 -11 79 -19 0 -7 59 -13
130 -12 94 0 130 8 130 27 0 18 -27 26 -85 24 -47 -1 -161 4 -255 12 -119 9
-156 8 -124 -6z"/>
<path d="M7265 3605 c-67 -22 -17 -49 75 -40 55 5 100 3 100 -5 0 -18 68 -18
80 1 12 19 123 0 111 -19 -13 -21 97 -14 112 7 8 11 27 8 45 -7 36 -30 172
-47 172 -22 0 10 32 5 70 -11 44 -18 70 -22 70 -9 0 15 12 15 40 0 23 -13 40
-14 40 -2 0 10 16 15 35 12 19 -4 35 -9 35 -10 0 -2 123 -6 274 -8 151 -2 281
-10 288 -18 8 -7 26 -4 41 9 18 15 27 15 27 1 0 -12 17 -20 39 -19 21 2 37 13
35 24 -2 12 7 19 21 16 14 -3 25 4 25 15 0 21 -9 22 -300 28 -104 2 -203 10
-220 18 -51 24 -205 31 -254 13 -25 -10 -46 -11 -46 -1 0 19 -165 14 -198 -7
-12 -7 -22 -4 -22 8 0 32 -73 25 -109 -10 -26 -27 -31 -27 -31 -2 0 20 -22 29
-70 29 -38 0 -65 -8 -59 -18 6 -10 -3 -18 -21 -18 -19 0 -27 9 -18 23 10 16
-2 20 -39 13 -29 -6 -53 -5 -53 2 0 14 -257 20 -295 7z"/>
<path d="M404 3578 c-32 -12 78 -36 156 -35 17 0 84 -6 150 -15 66 -8 172 -16
235 -17 63 0 115 -8 115 -16 0 -8 21 -15 47 -15 25 0 52 -6 60 -13 22 -23 141
-28 172 -8 48 30 15 42 -124 47 -72 2 -127 11 -122 19 5 8 -7 16 -27 17 -20 2
-61 5 -91 9 -33 4 -55 -3 -55 -17 0 -15 -6 -17 -15 -4 -17 22 -18 22 -157 42
-132 18 -302 21 -344 6z"/>
<path d="M1401 3469 c12 -15 73 -32 135 -38 63 -7 139 -16 169 -21 39 -7 55
-1 55 21 0 22 -23 29 -95 28 -52 -1 -138 6 -190 17 -78 15 -92 14 -74 -7z"/>
<path d="M2990 3461 c-22 -9 -48 -11 -58 -5 -10 5 -13 2 -7 -9 7 -10 49 -15
93 -11 45 5 77 16 71 26 -13 21 -44 21 -99 -1z"/>
<path d="M8108 3377 c-19 -31 3 -40 73 -33 l64 6 -62 23 c-40 15 -67 16 -75 4z"/>
<path d="M8313 3346 c-27 -27 -11 -66 27 -66 22 0 40 8 40 18 0 26 -52 64 -67
48z"/>
<path d="M6460 3315 c0 -11 -17 -15 -39 -10 -33 9 -35 6 -15 -27 34 -55 121
-68 219 -31 19 7 50 18 69 24 29 9 30 14 6 29 -17 10 -38 10 -51 -1 -13 -10
-29 -13 -36 -5 -7 7 -13 2 -13 -11 0 -12 -9 -23 -20 -23 -11 0 -20 12 -20 28
0 15 -22 32 -50 37 -27 5 -50 1 -50 -10z"/>
<path d="M4749 3258 c-7 -10 -20 -13 -30 -7 -11 6 -19 -2 -19 -18 0 -23 19
-27 85 -20 105 12 107 14 34 41 -35 14 -63 15 -70 4z"/>
<path d="M4540 3240 c0 -11 11 -21 25 -21 14 -1 45 -6 70 -10 27 -5 45 1 45
16 0 14 -30 27 -70 30 -39 3 -70 -4 -70 -15z"/>
<path d="M7076 3029 c-4 -4 -52 -8 -107 -9 -179 -5 -261 -22 -220 -45 20 -11
41 -12 48 -2 20 26 89 20 98 -9 7 -19 16 -16 37 10 24 31 30 32 47 6 11 -16
21 -21 21 -9 0 28 156 32 173 5 8 -15 3 -17 -15 -6 -23 13 -24 11 -2 -12 23
-24 32 -22 61 14 19 22 45 37 58 33 14 -5 25 0 25 10 0 17 -208 30 -224 14z"/>
<path d="M7516 3017 c-28 -18 -23 -19 91 -27 31 -2 63 -14 70 -26 14 -21 151
-3 178 24 6 6 23 -4 38 -23 18 -23 26 -25 22 -7 -3 15 6 31 20 36 14 5 26 -7
27 -27 0 -20 5 -27 11 -14 6 16 28 18 68 7 34 -10 59 -10 59 1 0 35 -165 63
-260 45 -61 -13 -126 -11 -195 5 -56 12 -114 15 -129 6z"/>
<path d="M7466 2951 c9 -27 83 -31 117 -6 20 14 18 16 -8 8 -19 -7 -35 -5 -35
3 0 9 -18 15 -40 15 -22 0 -37 -9 -34 -20z"/>
<path d="M8190 2960 l-80 -14 95 -3 c52 -2 95 6 95 17 0 11 -7 19 -15 17 -8
-1 -51 -9 -95 -17z"/>
<path d="M8538 2691 c-5 -5 -52 -11 -104 -14 -51 -2 -94 -13 -94 -23 0 -10 17
-14 38 -9 21 6 77 2 125 -8 48 -10 96 -19 107 -19 194 0 373 11 380 23 16 24
-32 34 -176 35 -75 0 -142 5 -148 11 -6 7 -29 2 -51 -10 -29 -15 -44 -15 -54
1 -8 13 -18 18 -23 13z"/>
<path d="M5100 2506 c0 -32 55 -71 79 -57 12 8 21 5 21 -6 0 -11 18 -15 40 -9
22 6 35 18 29 27 -6 10 -23 12 -40 6 -18 -7 -29 1 -29 23 0 27 -6 30 -26 13
-20 -16 -33 -16 -50 1 -16 16 -24 17 -24 2z"/>
<path d="M5390 2461 c-7 -12 -22 -16 -34 -9 -12 8 -17 2 -12 -14 6 -17 31 -25
65 -21 42 5 52 0 40 -20 -11 -21 -9 -22 11 -4 13 13 40 19 57 12 18 -6 27 -5
20 3 -7 8 -27 17 -43 19 -17 3 -44 16 -60 30 -21 17 -35 18 -44 4z"/>
<path d="M6024 2465 c-13 -5 -21 -14 -16 -22 4 -7 -36 -14 -89 -15 -54 -1 -93
6 -87 15 6 9 1 17 -10 17 -11 0 -24 -8 -30 -17 -22 -35 84 -63 278 -73 110 -5
254 -20 320 -32 66 -12 152 -22 190 -22 280 1 358 8 392 36 21 17 27 25 13 18
-14 -7 -25 -3 -25 9 0 11 -9 21 -19 21 -11 0 -14 -15 -7 -32 10 -28 6 -29 -30
-10 -57 30 -184 29 -185 -3 0 -15 -11 -11 -27 10 -20 26 -60 37 -149 40 -68 3
-123 12 -123 20 0 8 -14 15 -31 15 -17 0 -27 -7 -21 -17 16 -25 -61 -14 -95
15 -17 14 -38 21 -47 16 -9 -6 -53 -4 -97 4 -44 8 -91 11 -105 7z"/>
<path d="M7030 2344 c-65 -13 -77 -39 -30 -64 36 -19 42 -19 29 1 -11 18 -7
20 13 8 33 -21 258 -46 258 -29 0 7 23 12 50 12 28 0 50 -8 50 -17 0 -9 39
-14 87 -11 76 5 84 10 66 40 -12 18 -28 29 -36 24 -8 -5 -51 -1 -95 9 -44 10
-85 13 -91 7 -19 -18 -128 -15 -116 4 6 10 -13 12 -44 4 -30 -7 -50 -6 -44 3
11 17 -30 21 -97 9z"/>
<path d="M4771 2309 c-21 -16 -53 -25 -70 -19 -17 5 -56 -3 -86 -19 -30 -16
-55 -20 -55 -10 0 11 -13 19 -30 19 -42 0 -38 -55 5 -66 20 -6 10 -11 -25 -13
-55 -3 -67 -18 -150 -192 -95 -200 -148 -244 -250 -209 -22 7 -62 7 -90 -2
l-50 -14 45 -15 c106 -33 0 -83 -130 -61 -69 12 -71 10 -30 -13 43 -25 42 -27
-45 -53 -76 -22 -86 -31 -70 -62 14 -26 11 -39 -10 -47 -35 -14 -60 20 -25 34
19 7 18 15 -5 31 -26 17 -23 26 18 56 44 32 254 230 442 417 39 38 87 69 106
69 20 0 32 7 27 16 -6 8 22 37 60 63 58 40 73 43 87 20 10 -15 23 -22 30 -16
17 18 -45 75 -75 68 -27 -6 -160 -60 -226 -93 -23 -11 -50 -18 -60 -15 -10 3
-40 -2 -66 -11 -51 -17 -323 43 -323 72 0 36 -32 13 -35 -24 -1 -23 6 -36 16
-29 11 6 19 1 19 -12 0 -16 23 -21 70 -13 80 13 90 -8 25 -52 -25 -17 -75 -58
-111 -92 -37 -34 -79 -62 -95 -62 -51 0 -31 30 46 70 82 43 108 69 93 94 -17
27 -44 18 -89 -29 l-44 -45 14 50 13 50 -29 -50 c-16 -27 -26 -55 -22 -61 9
-15 -148 -151 -164 -142 -7 3 -18 -2 -25 -12 -6 -11 -70 -70 -142 -132 -99
-87 -138 -135 -162 -208 -28 -81 -40 -94 -80 -89 -36 4 -41 -1 -24 -18 42 -42
-11 -122 -73 -109 -42 9 -57 0 -85 -49 -24 -42 -49 -60 -85 -60 -28 0 -51 -9
-51 -21 0 -49 -235 -189 -264 -157 -3 3 -31 -19 -62 -50 -40 -40 -63 -50 -81
-35 -15 13 -35 14 -54 2 -16 -10 -51 -19 -77 -19 -27 0 -42 -6 -35 -14 18 -17
-140 -83 -202 -85 -32 -1 -46 -14 -47 -46 -2 -36 -5 -38 -12 -9 -6 23 -21 33
-39 25 -17 -6 -34 -11 -39 -11 -4 0 -8 -10 -8 -21 0 -12 9 -16 20 -9 11 7 20
-10 20 -39 0 -33 11 -51 31 -51 17 0 26 -9 19 -20 -7 -12 -23 -15 -34 -7 -13
8 -16 4 -8 -10 8 -13 37 -23 64 -23 28 0 46 7 40 16 -5 9 9 27 31 41 23 14 36
17 29 7 -36 -60 74 -35 256 57 142 72 184 88 142 52 -33 -28 -126 -85 -207
-127 -81 -41 -151 -83 -156 -91 -5 -8 -23 -15 -39 -15 -17 0 -25 9 -18 20 19
30 -29 24 -61 -8 -16 -16 -38 -32 -50 -36 -12 -4 -23 -22 -26 -41 -7 -46 -14
-51 -94 -65 -115 -20 -174 -53 -164 -93 5 -20 -3 -48 -18 -62 -32 -32 -263
-204 -277 -206 -5 -2 -23 -8 -40 -14 -96 -36 -111 -38 -80 -9 131 120 279 231
325 242 54 12 80 57 30 51 -14 -2 -48 -3 -77 -1 -73 3 -69 62 5 62 40 0 53 8
45 28 -15 38 52 72 141 72 81 0 81 -2 42 91 -16 38 -20 69 -10 69 10 0 20 -16
21 -35 1 -21 5 -25 11 -10 13 31 49 33 42 3 -3 -13 5 -27 17 -31 30 -11 33
124 2 149 -47 39 -129 5 -142 -59 -6 -33 -20 -55 -29 -49 -10 6 -41 -6 -69
-28 -31 -25 -64 -35 -86 -27 -26 10 -32 6 -23 -16 15 -41 -2 -64 -85 -114 -79
-49 -109 -55 -87 -18 10 17 4 16 -19 -2 -38 -31 -46 -53 -11 -31 40 25 8 -27
-81 -130 -96 -111 -114 -119 -154 -67 -42 55 -34 76 56 135 47 31 114 89 150
128 144 158 173 181 201 158 20 -16 33 -16 50 1 17 17 15 23 -11 23 -68 0 -33
50 38 55 89 6 180 48 252 115 58 53 88 66 64 26 -9 -13 13 -4 48 21 34 25 68
53 75 64 6 10 40 19 75 20 53 0 58 4 29 21 -19 11 -35 40 -35 64 -1 43 -1 43
-40 -6 -31 -40 -39 -43 -40 -15 0 20 32 50 76 73 42 21 118 80 169 130 69 68
109 92 153 92 33 0 65 9 72 20 22 36 250 182 250 161 0 -12 14 -21 30 -21 17
0 30 14 30 30 0 38 28 38 60 0 29 -34 89 -41 69 -8 -10 15 1 18 33 7 42 -13
45 -11 21 17 -15 18 -36 31 -47 28 -12 -2 -26 9 -31 24 -7 20 0 25 22 16 18
-7 33 -3 33 8 0 11 17 15 38 9 21 -7 45 -3 52 9 7 12 32 16 54 9 24 -8 36 -5
29 5 -6 11 24 41 67 68 44 26 79 56 79 67 1 31 300 311 332 311 17 0 36 15 43
33 7 18 39 59 72 90 33 32 55 63 48 70 -7 7 -38 -14 -68 -46 -58 -61 -281
-207 -329 -214 -44 -7 -85 -39 -135 -103 -25 -33 -56 -61 -69 -63 -13 -1 -32
-4 -43 -5 -11 -1 -6 -11 10 -22 24 -15 19 -19 -23 -20 -29 0 -58 -13 -64 -30
-14 -36 10 -39 43 -6 19 19 24 19 24 -1 0 -13 -13 -29 -30 -36 -16 -6 -30 -24
-30 -39 0 -15 -8 -28 -17 -28 -23 0 -93 80 -71 81 10 0 -25 23 -78 51 -52 27
-104 44 -114 38 -17 -11 -180 28 -180 42 0 25 50 108 66 108 10 0 9 12 -3 27
-25 30 -11 53 32 53 16 0 21 -10 13 -23 -10 -16 -3 -20 20 -10 20 7 44 13 54
13 10 0 18 14 18 30 0 17 8 30 17 30 10 0 13 -22 8 -50 -5 -27 -18 -45 -27
-39 -10 6 -18 1 -18 -11 0 -14 -18 -18 -45 -11 l-45 11 44 -22 c46 -25 78 -78
45 -78 -10 0 -19 -9 -19 -20 0 -11 18 -20 39 -20 27 0 36 10 28 30 -6 17 -2
30 9 30 11 0 25 -11 31 -25 8 -19 10 -19 11 1 1 15 11 21 22 14 11 -7 20 3 20
21 0 18 -18 37 -40 43 -22 6 -40 25 -40 43 1 26 4 27 18 6 27 -43 48 9 22 57
-22 41 6 59 30 20 7 -11 34 -20 61 -20 66 0 211 -60 198 -82 -13 -21 18 -24
38 -4 8 8 38 15 67 15 67 1 77 32 28 85 -22 23 -36 46 -31 51 5 4 -4 8 -20 8
-16 0 -25 -7 -19 -16 6 -9 -4 -11 -21 -5 -17 7 -26 19 -21 28 6 9 -12 14 -39
11 -28 -3 -45 2 -40 11 14 22 -150 17 -211 -6 -27 -10 -55 -28 -62 -40 -8 -11
-36 -24 -65 -27 -28 -3 -62 -11 -77 -19 -14 -7 -5 6 21 28 56 50 15 58 -53 11
-24 -17 -44 -24 -44 -15 -1 9 -19 -6 -42 -34 -30 -37 -36 -40 -21 -9 18 37 14
41 -48 43 -70 2 -92 -21 -41 -41 54 -20 -63 -213 -129 -213 -30 0 -88 -127
-62 -136 13 -4 23 -26 23 -48 0 -36 4 -37 33 -13 31 25 31 23 8 -21 -23 -42
-22 -47 7 -36 18 7 54 5 80 -5 30 -12 55 -10 69 4 15 15 30 14 53 -5 17 -14
37 -20 44 -13 7 7 24 3 39 -10 51 -42 27 9 -29 62 -40 39 -50 60 -34 74 34 32
103 -4 118 -61 7 -28 30 -60 52 -72 43 -23 54 -60 19 -60 -12 0 -15 11 -7 25
11 20 8 20 -13 0 -15 -14 -78 -25 -142 -25 -63 0 -121 -10 -128 -22 -8 -12
-40 -18 -72 -13 -42 6 -65 -2 -78 -26 -10 -19 -51 -40 -90 -48 -104 -19 -206
-71 -288 -146 -39 -36 -77 -65 -85 -65 -8 0 -31 -18 -52 -40 -37 -40 -38 -40
-81 -3 -24 21 -66 35 -95 32 -45 -5 -51 0 -43 43 6 32 0 48 -18 48 -15 0 -27
19 -27 41 0 34 8 39 45 28 52 -17 78 -49 61 -76 -7 -11 -2 -13 10 -5 13 8 40
5 62 -7 29 -15 41 -13 49 9 15 38 -61 90 -132 90 -49 0 -55 6 -46 53 5 29 0
70 -11 90 -13 24 -13 50 -1 72 20 35 -45 155 -74 137 -8 -5 -27 -2 -43 8 -19
12 -6 21 45 30 48 9 104 45 167 107 52 51 107 90 123 87 16 -4 24 2 17 12 -17
29 186 50 219 23 15 -12 37 -17 48 -10 12 8 21 3 21 -10 0 -13 13 -18 28 -13
15 6 79 4 141 -4 99 -14 116 -11 133 21 16 31 12 37 -24 37 -37 0 -39 4 -16
32 17 20 29 24 34 10 10 -29 58 -28 76 1 10 16 4 20 -17 12 -18 -7 -35 -4 -39
7 -4 12 -45 26 -91 32 -97 13 -115 46 -25 46 33 0 60 -10 60 -22 0 -16 8 -17
25 -2 14 11 52 24 85 29 54 8 53 9 -15 12 -41 2 -75 11 -75 20 0 9 -11 17 -25
18 -14 1 -45 8 -70 16 -28 8 -45 5 -45 -9 0 -12 -25 -23 -55 -24 -34 -2 -42
-6 -20 -12 43 -11 46 -46 4 -46 -17 0 -26 -9 -19 -20 7 -11 -1 -20 -18 -20
-19 0 -26 11 -19 30 16 43 -27 37 -78 -10 -33 -31 -36 -40 -11 -40 17 0 59 -6
94 -12 49 -10 62 -6 62 19 0 30 4 30 39 -1 57 -49 37 -60 -98 -54 -129 6 -198
43 -156 85 17 17 17 23 -2 23 -40 0 -170 -72 -211 -118 -21 -23 -54 -42 -74
-42 -20 0 -41 -8 -47 -18 -6 -9 -35 -22 -66 -28 l-55 -10 70 59 c39 33 95 74
125 93 68 40 68 51 6 92 -39 25 -48 26 -39 4 7 -17 -6 -34 -32 -42 -24 -7 -39
-25 -33 -39 29 -76 -302 -226 -521 -235 -80 -4 -106 -13 -113 -40 -5 -20 -28
-36 -50 -36 -29 0 -38 9 -30 30 6 17 4 31 -6 32 -9 1 -38 4 -64 6 -29 4 -67
-14 -97 -44 -53 -53 -109 -25 -62 30 29 36 11 33 -93 -18 -92 -44 -121 -95
-56 -97 19 -1 80 -4 135 -7 55 -3 121 2 147 12 31 11 58 9 75 -5 19 -17 45
-16 97 1 39 13 99 17 132 10 l61 -14 -43 -37 c-30 -26 -55 -32 -86 -21 -24 9
-61 10 -83 2 -22 -8 -56 -7 -75 3 -26 14 -31 11 -22 -13 7 -19 0 -30 -20 -30
-21 0 -28 11 -20 31 10 26 0 31 -55 25 -50 -4 -70 -17 -74 -47 -7 -48 197 -70
250 -26 38 32 109 38 141 12 14 -11 25 -12 25 -2 0 9 27 16 60 15 91 -4 93 -7
46 -46 -26 -22 -41 -54 -37 -76 5 -28 -9 -45 -53 -61 -50 -19 -58 -18 -48 6
17 44 -5 35 -56 -24 -40 -47 -92 -53 -92 -10 0 30 131 91 186 86 35 -2 52 4
44 17 -7 11 -23 15 -35 7 -13 -8 -18 -2 -11 15 11 29 -11 37 -122 40 -49 2
-121 -68 -122 -117 0 -19 14 -17 51 7 88 58 72 17 -19 -49 -63 -45 -92 -56
-100 -38 -10 20 -14 20 -24 0 -6 -14 -24 -25 -40 -25 -15 0 -26 -10 -23 -22 3
-13 -6 -27 -20 -32 -14 -5 -25 4 -25 19 0 69 -83 109 -129 64 -27 -28 -34 -29
-61 -2 -27 27 -26 31 5 39 19 5 -7 10 -59 12 -91 2 -140 47 -108 98 13 22 -43
16 -113 -13 -97 -39 -55 -128 53 -112 34 5 51 4 37 -2 -14 -7 -25 -25 -25 -41
0 -15 -14 -28 -31 -28 -17 0 -26 -9 -19 -20 7 -11 -6 -20 -29 -20 -22 0 -41
-9 -41 -20 0 -11 27 -20 59 -20 43 0 57 8 49 28 -19 49 175 96 204 49 6 -9 -6
-17 -26 -18 -44 0 -110 -48 -92 -66 14 -14 -30 -19 -129 -13 -36 1 -65 -7 -65
-18 0 -24 23 -29 97 -22 30 2 42 -5 34 -18 -7 -12 -31 -22 -52 -22 -22 0 -39
-10 -39 -21 0 -12 9 -16 20 -9 11 7 20 2 20 -10 0 -13 27 -20 65 -16 36 3 61
14 55 24 -5 11 44 44 110 75 66 31 110 57 97 57 -12 0 -27 17 -32 37 -8 30 -1
36 29 28 30 -8 33 -14 13 -27 -17 -11 17 -18 88 -18 66 0 115 9 115 21 0 14
13 13 40 -1 23 -12 52 -16 65 -9 14 6 8 -2 -14 -20 -21 -17 -54 -31 -74 -31
-19 0 -44 -16 -55 -35 -18 -33 -20 -33 -33 0 -7 19 -28 35 -46 35 -23 -1 -26
-5 -9 -16 16 -10 18 -25 5 -45 -16 -24 -22 -24 -36 -2 -17 26 -186 -60 -259
-131 -15 -14 -50 -32 -79 -39 -99 -25 -183 -166 -100 -167 17 -1 15 -7 -5 -20
-17 -11 -20 -20 -8 -20 36 0 49 25 25 53 -17 22 -10 27 36 27 43 1 50 5 28 19
-34 22 -30 24 113 61 46 11 90 31 97 42 7 12 87 56 176 99 168 80 297 151 499
273 64 38 120 67 124 62 20 -20 -278 -236 -311 -226 -20 7 -41 2 -48 -9 -8
-12 1 -16 23 -9 25 8 21 -1 -14 -30 -27 -22 -59 -41 -70 -41 -11 0 -6 9 10 21
17 11 21 18 10 14 -38 -13 -152 -86 -253 -161 -56 -41 -109 -75 -119 -75 -11
0 -57 -25 -103 -54 -120 -77 -176 -106 -206 -106 -15 0 -25 -16 -24 -36 2 -28
16 -34 64 -28 l61 8 -50 -37 c-27 -20 -57 -35 -65 -32 -8 3 -15 -13 -15 -35 0
-54 7 -51 98 31 47 42 84 62 91 50 8 -12 -2 -21 -21 -21 -19 0 -30 -5 -24 -11
19 -19 -99 -135 -122 -120 -15 9 -22 -20 -22 -88 0 -58 9 -101 21 -101 12 0
16 9 9 20 -7 11 -3 20 8 20 58 0 130 43 101 61 -24 15 -24 18 5 19 19 0 44 17
55 38 34 64 194 78 169 15 -4 -13 9 -34 31 -48 32 -19 38 -19 30 1 -13 33 43
109 64 88 9 -9 3 -25 -14 -35 -20 -13 -22 -18 -3 -19 14 0 30 14 37 30 6 17
20 30 31 30 11 0 15 -13 9 -28 -6 -16 3 -34 20 -40 43 -17 18 -45 -53 -59 -55
-11 -89 -73 -40 -73 11 0 20 8 20 18 0 9 22 22 50 27 27 5 50 1 50 -9 0 -10 9
-13 20 -6 11 7 20 30 20 52 0 22 11 38 25 37 50 -7 77 1 66 20 -7 11 -25 14
-42 8 -34 -13 -38 32 -10 129 15 54 13 68 -13 78 -27 11 -25 15 11 29 24 9 43
30 43 46 0 17 11 31 24 31 47 0 -14 36 -84 49 -43 8 -60 7 -44 -4 39 -27 0
-110 -69 -145 -31 -17 -76 -53 -100 -80 -24 -28 -67 -53 -96 -55 -49 -4 -51
-2 -22 27 17 17 31 39 31 49 0 11 14 19 30 19 17 0 30 9 30 20 0 11 -11 20
-24 20 -13 0 7 32 44 70 38 39 81 66 95 61 15 -6 22 -2 15 8 -13 23 59 65 78
46 8 -7 19 7 25 31 7 27 27 44 51 44 22 0 68 20 103 44 87 60 217 176 197 176
-9 0 -27 -11 -40 -24 -19 -19 -24 -19 -24 0 0 13 9 24 20 24 11 0 73 54 138
120 65 66 133 120 152 120 30 0 30 3 1 32 -26 26 -38 27 -62 7 -17 -14 -36
-18 -44 -10 -8 8 1 23 19 33 19 10 46 31 61 46 63 63 162 100 150 56 -5 -22
-3 -51 6 -66 10 -16 4 -35 -18 -50 -47 -33 -35 -207 14 -210 18 0 2 -13 -37
-27 -57 -22 -74 -22 -91 -1 -14 18 -31 20 -55 7 -19 -11 -43 -14 -54 -7 -27
17 -25 -17 2 -44 13 -13 34 -18 48 -13 14 5 32 0 39 -12 9 -14 32 -11 72 10
67 34 76 16 39 -80 -23 -63 3 -68 30 -6 26 58 140 79 206 38 64 -40 23 -61
-105 -53 -64 4 -86 1 -61 -10 52 -20 -49 -52 -105 -32 -32 11 -31 9 2 -16 39
-31 -102 -209 -155 -197 -12 3 -8 -6 8 -20 81 -68 -3 -99 -125 -46 -59 25 -40
-24 23 -61 61 -36 63 -88 4 -88 -19 0 -43 -9 -53 -19 -25 -25 -141 5 -135 34
7 32 -112 75 -137 50 -23 -23 9 -50 73 -60 79 -12 100 -58 32 -72 -40 -8 -71
-32 -91 -71 -17 -33 -44 -67 -60 -76 -15 -9 -31 -39 -35 -66 -10 -71 -32 -100
-78 -100 -26 0 -35 9 -26 23 9 15 5 18 -9 9 -13 -8 -18 -23 -12 -33 6 -11 -8
-19 -31 -19 -23 0 -37 -9 -30 -20 8 -13 -5 -13 -40 0 -66 25 -75 25 -60 -1 22
-34 -96 3 -134 42 -25 26 -28 39 -10 45 13 5 18 15 11 22 -7 8 -54 -5 -104
-29 -50 -23 -101 -37 -112 -30 -13 9 -21 -20 -21 -79 0 -57 8 -88 20 -80 12 7
15 21 9 32 -13 21 23 61 85 95 52 28 72 29 57 5 -6 -10 3 -23 19 -29 17 -7 29
-28 28 -47 -1 -21 -5 -26 -11 -11 -12 30 -67 34 -67 5 0 -11 -9 -20 -20 -20
-11 0 -20 14 -20 31 0 17 -9 26 -19 20 -49 -31 76 -133 157 -129 18 0 7 10
-23 21 -76 28 -69 53 14 46 81 -6 116 -24 100 -50 -6 -11 -1 -19 11 -19 15 0
19 21 10 60 -7 34 -5 60 6 60 33 0 65 -54 52 -87 -10 -28 3 -33 83 -33 53 0
90 6 83 12 -15 15 35 68 64 68 11 0 30 18 42 40 12 22 34 40 50 40 15 0 34 11
42 23 10 16 3 19 -22 10 -31 -12 -32 -9 -10 17 20 24 30 26 42 8 11 -19 27
-17 66 9 71 46 65 15 -13 -72 -55 -61 -144 -116 -198 -123 -96 -12 -2 -32 134
-29 98 3 163 9 144 13 -20 4 -30 16 -23 28 8 13 -2 15 -29 7 -28 -9 -43 -5
-43 11 0 14 6 19 12 12 7 -7 27 2 44 19 17 17 51 27 78 21 26 -5 43 -4 38 1
-17 17 176 105 228 104 44 0 46 -3 15 -21 -19 -11 -59 -42 -88 -69 -29 -27
-70 -49 -91 -49 -21 0 -33 -8 -27 -19 7 -10 -4 -28 -24 -40 -26 -16 7 -20 135
-19 179 1 328 29 311 56 -5 9 26 33 70 52 73 33 117 89 49 63 -68 -26 62 74
180 138 85 46 140 79 150 89 35 35 161 120 179 120 11 0 21 14 21 32 0 21 11
28 31 20 17 -6 26 -4 20 6 -5 9 61 59 149 109 146 85 213 149 189 180 -5 7 -4
9 3 4 7 -5 36 14 65 42 66 62 228 147 282 147 23 0 41 9 41 20 0 11 -16 20
-35 21 -48 0 336 151 430 168 41 8 94 26 117 41 23 15 77 33 120 41 43 7 150
48 238 90 243 117 533 213 438 145 -12 -9 -32 -43 -43 -76 -12 -33 -23 -49
-23 -35 -2 30 -62 34 -62 4 0 -12 -9 -16 -20 -9 -12 7 -15 21 -9 31 6 11 2 19
-9 19 -11 0 -25 -8 -31 -18 -16 -26 -177 -114 -257 -141 -37 -12 -93 -49 -124
-81 -32 -33 -72 -61 -89 -62 -17 0 -71 -27 -121 -59 -173 -112 -312 -149 -344
-92 -10 18 -42 33 -71 33 -50 0 -50 -2 -15 -27 36 -27 36 -28 -6 -42 -24 -7
-44 -22 -44 -32 0 -10 -40 -36 -89 -58 -49 -23 -94 -49 -100 -59 -6 -9 -42
-23 -81 -31 -38 -7 -70 -21 -70 -32 0 -10 -12 -19 -26 -19 -15 0 -47 -27 -72
-61 -24 -33 -76 -76 -113 -94 -38 -18 -69 -38 -69 -45 0 -50 -57 -87 -91 -59
-30 25 -34 25 -26 0 5 -16 -5 -44 -22 -63 -17 -19 -47 -57 -66 -84 -21 -32
-67 -58 -120 -71 -125 -30 -235 -71 -235 -86 0 -8 29 -6 64 4 35 10 67 14 72
9 5 -5 -31 -20 -81 -33 -59 -16 -88 -33 -81 -50 6 -15 -11 -31 -42 -38 -29 -7
-52 -22 -52 -33 0 -11 -20 -36 -45 -57 l-45 -38 83 0 c49 -1 92 11 107 29 14
17 47 30 73 30 27 0 53 13 59 29 6 16 24 24 40 18 15 -6 23 -19 17 -29 -22
-35 25 -17 62 23 38 42 37 42 -17 28 -34 -8 -54 -5 -54 9 0 12 22 22 48 22 28
0 108 47 190 111 78 61 142 101 142 89 0 -13 24 -6 55 16 30 21 69 38 85 39
17 0 54 6 82 14 43 11 55 6 63 -28 6 -22 3 -41 -7 -41 -10 0 -18 11 -18 23 0
13 -7 17 -15 9 -8 -9 -15 -25 -15 -38 0 -27 -167 -78 -196 -60 -11 7 -14 2 -7
-10 9 -14 -12 -27 -56 -35 -39 -7 -71 -21 -71 -31 0 -10 -13 -18 -29 -18 -16
0 -41 -24 -55 -54 -14 -30 -62 -75 -106 -101 l-80 -45 150 5 c92 3 146 13 140
25 -5 11 -17 18 -25 15 -8 -3 -15 5 -15 17 0 13 22 16 56 9 59 -13 190 37 140
54 -31 10 53 60 114 67 139 17 235 108 115 108 -46 0 -50 4 -24 27 34 32 165
80 150 54 -6 -9 3 -22 21 -29 42 -16 34 -20 110 48 66 59 67 60 23 72 -25 7
-45 25 -45 40 0 39 -26 35 -85 -12 -55 -43 -85 -52 -65 -20 7 11 2 20 -10 20
-13 0 -20 10 -16 23 9 26 161 76 233 77 26 0 79 15 119 34 52 25 73 28 79 10
5 -13 17 -19 27 -13 39 24 16 -28 -25 -54 -39 -27 -40 -31 -10 -61 30 -30 27
-34 -27 -53 -68 -24 -83 -53 -17 -32 28 9 38 6 28 -9 -17 -27 48 -55 66 -28
44 65 170 124 195 90 20 -27 30 -29 51 -9 20 20 19 25 -4 25 -24 1 -24 3 -1
18 94 60 -60 53 -158 -7 -18 -11 -15 -1 8 26 21 23 50 43 65 43 15 0 27 10 27
21 0 12 8 16 19 10 10 -6 24 -2 32 10 7 13 35 17 63 10 39 -10 52 -4 60 28 6
23 25 42 43 43 21 1 24 5 8 11 -14 6 -25 18 -25 28 0 10 14 12 31 6 19 -7 26
-26 18 -49 -15 -49 86 -55 104 -6 10 25 16 26 29 5 13 -20 17 -21 18 -2 0 14
7 25 15 25 8 0 15 -22 15 -48 0 -27 -6 -45 -12 -41 -7 5 -52 -4 -100 -20 -86
-26 -87 -27 -23 -29 63 -2 85 -27 45 -52 -31 -19 -22 -76 20 -127 40 -47 91
-41 72 8 -6 15 -2 33 9 40 32 20 21 66 -20 79 -51 16 -31 70 27 70 24 0 63
-14 86 -30 42 -30 166 -35 166 -8 0 25 -78 34 -89 11 -6 -13 -8 -3 -3 22 5 29
-2 45 -20 45 -43 0 -59 -8 -52 -27 3 -10 -9 -12 -27 -5 -18 6 -36 12 -41 12
-4 0 -8 14 -8 30 0 17 18 30 40 30 45 0 49 75 5 110 -15 12 -18 31 -7 47 13
21 26 17 59 -18 l42 -46 27 64 27 64 23 -51 c21 -45 20 -51 -11 -46 -26 4 -35
-7 -35 -44 0 -42 9 -49 53 -46 32 2 58 -8 65 -26 9 -23 2 -28 -26 -18 -51 16
-77 -29 -35 -60 18 -14 33 -35 33 -47 0 -13 25 -22 55 -22 49 2 50 4 15 19
-34 14 -34 17 -5 19 29 1 31 9 12 49 -16 36 -14 58 9 95 36 56 14 136 -42 150
-19 5 -47 37 -62 70 -18 40 -32 53 -42 37 -9 -15 -20 -17 -27 -4 -7 11 1 31
17 44 24 20 32 18 42 -8 7 -18 22 -25 35 -17 67 42 130 -11 144 -120 4 -34 21
-70 38 -79 16 -10 25 -30 19 -45 -6 -15 6 -37 28 -49 22 -11 45 -44 52 -71 12
-48 72 -74 72 -31 0 11 -9 20 -19 20 -11 0 -7 39 8 90 15 50 22 90 17 90 -6 0
-1 12 11 27 13 15 17 32 10 39 -6 7 -15 55 -18 108 -15 224 -43 317 -120 394
-22 22 -26 42 -13 64 13 23 23 26 32 11 32 -51 191 22 503 230 56 37 115 67
130 67 16 0 81 32 145 70 176 106 225 70 95 -69 -31 -33 -49 -69 -40 -82 9
-15 18 -16 27 -3 12 21 93 9 91 -13 -3 -23 -139 -127 -139 -107 0 12 11 24 24
29 12 4 17 18 9 30 -21 34 -73 7 -73 -38 0 -22 -9 -34 -19 -28 -11 7 -14 25
-8 42 7 18 -1 29 -21 29 -35 0 -34 -73 1 -97 35 -23 -9 -143 -52 -143 -21 0
-42 -11 -47 -25 -7 -17 -19 -13 -40 15 -19 25 -24 48 -13 62 32 37 -6 50 -54
18 -26 -17 -47 -26 -47 -20 0 6 -18 2 -40 -10 -32 -17 -37 -15 -27 10 7 18 0
30 -19 30 -16 0 -35 -14 -42 -32 -16 -42 -15 -52 3 -41 9 5 33 -3 54 -19 21
-15 29 -28 18 -28 -11 0 -27 7 -35 15 -8 8 -30 15 -48 15 -18 0 -37 17 -41 37
-4 24 1 33 15 24 12 -7 22 -5 22 5 0 29 -77 43 -86 17 -16 -47 30 -125 112
-187 102 -76 131 -180 45 -158 -50 13 -45 -82 7 -134 21 -21 -27 -111 -74
-141 -14 -9 -35 -39 -46 -67 -27 -72 -39 -49 -20 36 13 55 10 71 -11 71 -19 0
-27 -27 -27 -86 0 -50 -9 -87 -22 -87 -12 0 -17 14 -11 30 7 17 4 30 -6 30
-27 0 -97 -107 -87 -134 10 -28 -87 -186 -114 -186 -58 0 -120 -33 -120 -63 0
-14 10 -13 30 3 20 16 30 17 30 3 0 -12 -18 -31 -40 -43 -22 -12 -40 -33 -40
-47 0 -40 -90 -73 -196 -73 -112 -1 -126 -9 -181 -100 -57 -93 -55 -100 29
-100 55 0 70 7 61 29 -6 17 -2 35 8 42 11 7 19 5 17 -5 -9 -49 8 -66 65 -66
35 0 58 6 51 13 -7 6 20 29 60 49 75 38 101 38 77 -1 -7 -11 -30 -21 -51 -21
-21 0 -43 -9 -50 -20 -26 -41 79 -18 145 33 l69 52 -11 -47 c-7 -27 4 -14 23
27 39 85 75 101 56 25 -8 -31 -4 -50 10 -50 12 0 17 -13 11 -30 -8 -20 1 -30
28 -30 46 0 49 13 11 51 -16 16 -24 45 -18 66 5 21 0 45 -12 52 -33 20 11 91
57 91 28 0 36 12 32 50 -6 58 22 85 55 52 16 -16 15 -22 -5 -22 -20 0 -16 -12
11 -43 34 -39 34 -42 3 -31 -23 8 -35 3 -35 -16 0 -16 -18 -38 -40 -50 -41
-22 -56 -100 -20 -100 11 0 20 -18 20 -39 0 -77 118 -9 162 93 43 101 81 104
100 10 7 -35 5 -58 -5 -52 -10 6 -55 -17 -101 -51 l-84 -61 104 0 c57 0 104 9
104 20 0 11 12 20 27 20 14 0 64 35 110 78 93 85 103 81 134 -58 l15 -70 19
55 c10 30 32 55 49 55 25 0 26 6 6 30 -20 24 -19 30 6 30 17 0 36 11 43 25 6
14 8 5 3 -20 -4 -25 0 -50 9 -56 10 -6 9 -33 -2 -61 -16 -43 -14 -50 16 -44
19 3 36 25 37 49 1 23 9 52 16 64 8 13 5 23 -7 23 -43 0 -19 33 45 64 63 30
66 30 69 -11 2 -23 18 -53 35 -66 18 -13 32 -29 31 -35 -9 -86 -2 -92 109 -92
l111 0 -41 79 c-49 96 -49 96 -5 106 25 5 5 26 -70 73 -98 61 -125 85 -90 80
40 -7 85 4 85 20 0 23 -137 24 -190 1 -65 -27 -230 -55 -219 -37 6 9 -40 15
-101 14 -92 -3 -191 -36 -107 -36 16 0 18 -7 6 -19 -11 -11 -49 -12 -94 -2
-41 9 -80 9 -86 0 -6 -10 -24 -12 -40 -6 -24 9 -22 19 14 50 43 37 43 38 5 67
-42 32 -53 29 136 40 41 2 88 15 104 28 16 14 41 22 56 19 14 -4 56 23 92 58
68 67 94 78 113 47 19 -31 -12 -82 -50 -82 -20 0 -41 -8 -47 -17 -6 -10 13
-13 42 -7 33 6 47 2 39 -11 -9 -15 6 -14 46 1 34 13 50 28 38 36 -14 9 -15 17
-1 26 12 7 27 -5 34 -27 7 -24 23 -35 41 -28 16 6 29 0 29 -16 1 -21 5 -20 19
3 12 18 12 37 1 48 -23 23 55 137 82 121 10 -6 24 16 31 50 12 63 37 80 52 36
5 -14 13 4 18 40 7 45 2 65 -16 65 -15 0 -21 13 -14 30 6 17 24 30 39 30 15 0
28 9 28 20 0 11 8 20 18 20 26 0 9 -143 -19 -161 -17 -10 -17 -18 -1 -28 13
-8 17 -22 11 -32 -6 -11 -2 -19 10 -19 11 0 21 -21 21 -46 0 -53 -43 -154 -65
-154 -29 0 -15 -96 15 -107 22 -9 28 -30 20 -71 -8 -46 0 -67 33 -90 35 -25
39 -36 19 -60 -17 -20 -19 -41 -5 -66 10 -20 18 -45 16 -56 -7 -45 190 -35
239 12 26 25 54 39 61 31 8 -7 3 -13 -9 -13 -13 0 -18 -14 -11 -30 22 -59 80
-30 69 35 -1 8 6 15 16 15 9 0 21 22 27 48 10 54 -36 44 -148 -32 -29 -20 -75
-36 -101 -36 -26 0 -60 -11 -75 -25 -22 -21 -24 -14 -14 39 7 40 3 67 -13 73
-14 6 -11 10 9 11 33 2 67 109 46 144 -22 36 -31 121 -11 109 23 -14 47 20 53
79 3 26 -6 43 -23 43 -18 0 -24 -13 -17 -35 6 -19 -2 -42 -17 -52 -16 -9 -34
-29 -41 -46 -6 -16 -10 15 -8 70 3 55 16 112 30 126 17 18 19 38 6 63 -15 27
-8 45 32 80 36 31 48 58 42 92 -5 26 -2 43 8 37 9 -6 17 -30 18 -54 0 -41 2
-41 27 -9 34 44 55 45 38 2 -10 -27 -5 -31 26 -19 21 9 48 18 61 20 13 2 37
15 53 29 24 19 34 19 45 1 21 -33 -50 -84 -81 -58 -16 14 -32 4 -50 -30 -15
-28 -39 -50 -53 -50 -15 0 -27 -11 -27 -25 0 -14 -6 -47 -12 -75 -9 -41 -7
-44 12 -20 20 27 22 27 14 0 -5 -16 -19 -28 -32 -25 -15 4 -18 -13 -10 -50 18
-74 28 -82 29 -23 l2 48 21 -45 c22 -44 96 -64 96 -25 0 11 16 20 35 20 28 -1
26 -8 -15 -40 -27 -22 -43 -40 -35 -42 53 -10 70 -5 113 37 27 25 54 39 60 31
18 -25 67 -30 52 -6 -7 12 -4 33 7 47 12 14 14 36 4 52 -13 21 -23 18 -44 -16
-38 -61 -95 -57 -88 7 7 64 -5 64 -29 0 -24 -62 -65 -66 -57 -5 3 25 -1 55 -9
68 -30 49 7 92 44 49 30 -35 38 -35 83 -9 44 26 44 29 6 21 -57 -12 -91 12
-75 53 9 25 19 28 39 13 29 -25 60 6 39 40 -20 32 13 23 56 -15 29 -26 42 -28
49 -10 4 14 18 25 31 25 15 0 15 -7 -2 -24 -13 -13 -24 -38 -23 -55 0 -26 5
-25 28 5 33 44 60 13 41 -46 -14 -43 36 -59 60 -20 14 23 50 8 50 -21 0 -31
-329 -341 -337 -317 -4 12 -36 -8 -70 -45 l-63 -67 -6 57 c-4 32 7 72 26 93
64 71 -7 59 -79 -13 -92 -92 -112 -130 -98 -184 9 -35 18 -39 39 -21 31 25 39
67 9 49 -39 -24 -41 29 -2 68 43 43 81 54 81 22 0 -10 -9 -24 -20 -31 -33 -21
-22 -50 13 -36 25 10 29 5 17 -16 -13 -23 -11 -23 11 -3 38 35 138 31 152 -6
10 -25 17 -25 43 -5 27 23 28 21 7 -18 -13 -24 -32 -49 -43 -56 -43 -26 -21
-90 30 -90 28 0 50 8 50 19 0 10 10 44 23 75 13 31 26 71 30 88 8 44 110 198
131 198 9 0 16 14 16 31 0 31 83 119 127 135 17 7 17 19 -2 51 -34 57 -32 72
5 36 16 -16 41 -33 55 -38 18 -7 12 -24 -20 -59 -25 -27 -45 -60 -45 -73 0
-13 -31 -43 -70 -65 -59 -35 -66 -48 -49 -80 27 -50 48 -48 76 7 20 40 22 37
11 -25 -12 -68 -48 -133 -48 -86 0 45 -78 0 -98 -57 -11 -32 -34 -72 -51 -89
-48 -48 -37 -68 39 -68 62 0 74 9 119 95 37 72 49 84 50 50 1 -51 73 -134 91
-104 17 27 90 24 90 -5 0 -13 14 -6 32 15 27 33 30 34 20 4 -6 -19 -3 -35 7
-35 24 0 65 115 76 210 9 83 45 148 45 81 0 -21 14 -54 32 -73 30 -33 29 -40
-10 -90 -87 -110 31 -205 147 -117 50 38 83 37 51 -1 -21 -25 -18 -30 15 -30
23 0 46 13 52 30 7 16 24 30 40 30 19 0 33 35 42 111 11 89 27 124 83 179 37
38 68 82 68 98 0 94 83 21 119 -104 18 -62 -62 -184 -119 -184 -11 0 -21 -16
-22 -35 -2 -19 -8 -9 -15 23 -19 85 -62 91 -59 8 1 -37 -9 -87 -22 -112 -29
-55 83 -68 114 -13 15 29 19 29 43 0 14 -17 45 -31 67 -31 33 0 37 5 18 24
-37 37 -29 56 26 56 28 0 50 -9 50 -20 0 -11 9 -20 21 -20 13 0 14 12 1 36
-10 19 -12 66 -4 105 14 63 16 65 30 24 8 -25 23 -45 34 -45 12 0 12 -15 -1
-39 -26 -48 -26 -61 -2 -61 11 0 25 31 32 70 7 38 20 65 29 60 8 -5 26 3 39
18 16 20 17 32 1 42 -11 7 -20 6 -18 -4 7 -39 -5 -46 -42 -26 -56 30 -36 200
25 200 10 0 15 25 11 55 -5 44 -15 54 -51 50 -25 -2 -46 4 -47 15 -2 11 -5 29
-8 40 -3 11 -6 30 -7 41 -2 12 -12 16 -23 9 -11 -7 -20 2 -20 20 0 18 9 27 20
20 11 -7 20 2 20 20 0 18 8 27 18 21 10 -6 23 0 29 14 5 14 11 5 11 -20 1 -25
9 -46 17 -48 8 -1 34 -4 58 -7 78 -8 112 -29 99 -61 -14 -37 67 -20 93 19 8
12 15 -21 15 -73 0 -54 -9 -95 -21 -95 -12 0 -15 -10 -8 -21 9 -14 25 -11 48
10 19 17 45 31 58 31 28 0 31 -34 3 -43 -11 -4 -21 -50 -23 -102 -2 -52 -11
-95 -21 -95 -10 0 -15 -11 -12 -26 9 -36 -78 -140 -94 -114 -18 29 -71 -14
-59 -46 18 -47 209 -42 209 5 0 23 13 41 30 41 17 0 30 17 30 38 0 54 21 102
43 102 11 0 15 -20 9 -45 -7 -25 -6 -34 0 -20 21 46 48 4 48 -76 0 -76 1 -78
70 -75 60 2 107 36 50 36 -11 0 -20 50 -20 111 0 69 -8 107 -20 99 -11 -7 -20
-3 -20 9 0 35 53 46 98 22 23 -12 42 -36 42 -53 0 -17 15 -29 35 -27 112 11
131 -21 75 -128 -17 -32 -30 -61 -30 -65 0 -21 118 -5 128 17 10 20 14 20 24
0 17 -36 54 -31 40 6 -7 20 -3 26 11 17 42 -26 -2 100 -46 132 -22 17 -94 77
-159 135 -65 58 -136 105 -159 105 -27 0 -37 8 -27 25 8 14 7 19 -2 11 -17
-17 -138 62 -122 79 6 6 25 -1 42 -15 21 -17 30 -18 30 -2 0 13 26 21 59 18
32 -2 58 -9 57 -15 -3 -34 7 -40 32 -17 32 30 -10 96 -61 96 -15 0 -27 9 -27
20 0 11 -12 20 -27 20 -19 0 -24 17 -17 54 9 49 12 51 26 15 13 -33 15 -34 17
-4 0 20 16 35 36 35 28 -1 29 -4 7 -18 -39 -25 -9 -62 52 -62 43 0 49 7 41 49
-8 42 -4 47 27 30 19 -10 58 -19 86 -19 27 0 55 -9 62 -20 7 -12 20 -16 28
-11 14 8 92 -129 78 -138 -3 -2 -33 3 -66 10 -33 8 -49 15 -35 17 55 5 22 58
-40 65 -147 16 -198 0 -164 -52 17 -25 59 -52 95 -59 51 -10 58 -17 34 -33
-25 -16 -23 -21 14 -31 46 -13 56 -83 16 -113 -13 -9 -9 -22 10 -35 42 -27
100 -25 102 5 0 14 5 43 10 65 5 22 10 59 11 81 2 37 12 41 90 34 71 -6 87 -2
87 26 0 23 -10 29 -34 20 -19 -7 -28 -6 -19 3 21 21 113 23 113 2 0 -34 4 -47
23 -69 22 -27 10 -36 -68 -55 -38 -9 -54 -5 -50 11 3 14 -12 28 -32 33 -24 5
-33 0 -24 -14 7 -12 5 -22 -6 -22 -11 0 -25 11 -31 25 -7 14 -9 -2 -6 -36 4
-37 -8 -75 -30 -98 -41 -43 -46 -71 -15 -71 12 0 16 -8 10 -18 -6 -10 12 -16
41 -13 38 4 57 -7 73 -42 12 -26 29 -47 38 -47 9 0 17 -13 17 -30 0 -16 14
-30 30 -30 17 0 30 -18 30 -40 0 -22 13 -40 30 -40 22 0 28 19 25 73 -3 48 5
76 23 83 17 5 22 0 14 -13 -8 -13 -5 -23 7 -23 11 0 21 26 21 59 0 63 -57 79
-119 32 -23 -17 -26 -14 -14 17 12 32 9 34 -17 12 -37 -31 -56 -18 -38 27 8
23 26 29 59 21 39 -10 50 -2 61 43 13 52 16 53 41 18 25 -34 27 -33 27 18 0
32 -9 50 -20 43 -11 -7 -20 -3 -20 9 0 11 9 21 20 21 11 0 20 18 20 40 0 22
-11 40 -24 40 -18 0 -18 6 -1 23 34 34 -27 85 -113 91 -110 9 -121 12 -112 26
5 8 -13 35 -41 61 -27 25 -49 38 -50 27 0 -10 -10 -2 -21 18 -12 21 -35 31
-54 25 -47 -14 -92 18 -78 56 6 17 3 35 -8 40 -10 6 -8 7 7 4 14 -3 24 -18 23
-34 -2 -20 16 -26 62 -21 55 7 73 -4 129 -74 35 -45 77 -82 92 -82 46 0 54 41
16 86 -20 24 -23 33 -7 19 15 -14 48 -25 73 -25 24 0 50 -9 57 -20 20 -33 53
-22 46 15 -4 19 -20 35 -36 36 -116 2 -237 75 -239 144 -1 13 -19 36 -41 50
-22 13 -40 32 -40 41 0 9 11 9 25 1 14 -9 39 -18 55 -20 17 -3 53 -32 81 -66
29 -33 63 -61 75 -61 13 0 22 -11 19 -25 -3 -14 19 -28 50 -31 37 -5 55 3 55
21 0 46 -140 195 -183 195 -22 0 -34 8 -28 18 6 10 -14 40 -45 65 -75 64 -91
93 -49 90 19 -2 69 -39 111 -83 98 -102 62 -21 -43 95 -69 77 -70 81 -23 69
28 -8 57 -14 65 -14 8 0 15 -18 15 -40 0 -22 8 -40 18 -40 10 0 23 -21 29 -47
14 -53 109 -163 127 -146 6 7 -3 34 -22 62 -18 28 -32 55 -32 62 1 6 -12 24
-29 41 -41 41 -39 70 2 54 27 -10 31 -5 20 26 -13 37 -13 37 17 -1 39 -51 63
-24 34 39 -15 33 -16 50 -2 50 11 0 15 9 8 20 -7 12 -22 15 -32 9 -11 -7 -38
11 -60 39 -27 35 -59 51 -94 49 -48 -2 -49 -3 -9 -11 25 -5 45 -18 45 -29 0
-10 -8 -14 -19 -8 -10 6 -24 3 -31 -9 -7 -11 9 -20 37 -20 71 0 139 -67 78
-76 -51 -8 -196 73 -265 146 -26 27 -55 50 -65 50 -10 0 -4 -14 14 -31 17 -18
31 -47 31 -65 -1 -28 -7 -27 -35 9 -60 74 -198 132 -250 105 l-44 -24 45 -16
c24 -9 44 -27 44 -39 0 -12 -9 -16 -20 -9 -49 30 -12 -24 83 -121 56 -58 114
-101 128 -96 14 5 31 0 38 -12 7 -11 -1 -21 -19 -21 -51 0 -13 -40 73 -79 65
-29 73 -39 50 -59 -19 -15 -32 -16 -36 -3 -10 29 -134 40 -145 13 -5 -12 -10
-7 -10 12 -1 18 8 40 20 47 13 8 6 27 -20 52 -23 21 -42 46 -42 55 0 10 -27
28 -60 42 -33 14 -60 31 -60 39 0 22 -104 145 -199 235 -49 47 -81 92 -72 100
9 9 20 5 25 -8 5 -13 22 -19 39 -12 17 6 42 -6 59 -31 40 -57 95 -58 78 -2
l-13 41 76 -41 c42 -23 104 -41 137 -41 34 0 97 -18 140 -40 148 -75 136 1
-18 116 -34 25 -60 50 -57 55 10 17 -45 89 -68 89 -13 0 -69 21 -125 47 -110
51 -263 61 -277 18 -10 -31 124 -91 200 -89 30 1 55 -7 55 -17 0 -11 26 -19
57 -19 65 0 163 -68 163 -112 0 -38 -72 -3 -123 60 -28 35 -39 37 -61 16 -14
-15 -17 -25 -6 -23 54 10 80 -2 47 -21 -22 -14 -56 -10 -104 10 -40 17 -97 30
-128 30 -42 0 -87 29 -169 109 -77 74 -158 128 -254 169 -132 56 -199 57 -132
2 17 -14 30 -18 30 -10 0 8 14 3 31 -11 43 -35 -27 -102 -90 -85 -34 9 -38 16
-18 30 21 15 22 21 2 29 -14 6 -25 22 -25 35 0 18 -33 24 -112 20 -88 -4 -122
3 -154 33 -22 21 -49 32 -60 25 -11 -7 -14 -3 -7 9 7 11 -14 31 -47 45 -32 13
-57 34 -54 46 6 33 -69 42 -88 11 -13 -20 -17 -21 -18 -2 0 14 -19 25 -41 25
-27 0 -36 -8 -27 -23 10 -16 4 -20 -19 -11 -21 8 -33 3 -33 -17 0 -16 -11 -29
-24 -29 -46 0 56 -81 115 -92 32 -6 69 -20 82 -31 14 -11 46 -24 71 -28 25 -4
69 -13 98 -20 29 -7 85 -3 125 8 42 11 69 12 62 1 -17 -27 39 -22 70 7 22 20
25 18 14 -12 -7 -20 -13 -40 -13 -45 0 -4 -15 -8 -34 -8 -81 0 16 -44 117 -53
117 -10 217 -42 217 -69 0 -10 27 -18 60 -18 33 0 60 -8 60 -18 0 -23 -186 -2
-202 23 -8 12 -19 10 -28 -4 -8 -13 -29 -19 -47 -12 -28 9 -28 7 2 -16 19 -15
35 -40 35 -55 1 -23 4 -22 19 1 10 17 25 23 33 16 8 -8 25 -6 38 5 18 15 22 8
15 -27 -5 -29 -22 -47 -42 -45 -35 2 -120 -148 -122 -218 -3 -92 -10 -130 -25
-130 -9 0 -16 -14 -16 -32 0 -19 11 -28 28 -22 17 7 32 -4 38 -27 6 -22 25
-39 42 -39 37 0 46 137 12 199 -24 46 19 68 85 44 25 -9 90 -19 145 -22 55 -3
123 -7 150 -10 28 -3 84 -6 126 -8 69 -3 74 -6 54 -43 -18 -35 -14 -43 30 -60
69 -26 96 -25 79 2 -10 15 -1 15 29 -1 23 -12 42 -36 42 -54 0 -57 67 -146
125 -166 32 -11 52 -29 45 -40 -7 -12 -3 -21 9 -21 11 0 21 -13 21 -29 0 -16
-17 -27 -39 -26 -21 2 -34 10 -29 18 9 15 -28 44 -62 48 -11 2 -31 4 -44 6
-14 2 -20 16 -13 33 6 16 2 30 -9 30 -11 0 -16 18 -10 40 6 23 1 40 -13 40
-13 0 -17 -10 -9 -23 10 -16 1 -20 -27 -12 -38 9 -40 6 -20 -37 12 -27 28 -48
37 -48 8 0 8 -26 -1 -58 -14 -49 -11 -60 21 -68 21 -6 38 -19 38 -31 0 -13
-22 -14 -65 -2 -99 29 -175 24 -175 -11 0 -36 -38 -38 -82 -4 -32 24 -109 154
-103 176 1 6 -28 23 -65 38 -84 33 -105 92 -38 105 32 6 48 0 48 -18 0 -15
-11 -27 -25 -27 -18 -1 -17 -6 3 -18 43 -28 82 -3 82 51 0 30 8 44 21 36 12
-7 17 -18 11 -24 -6 -5 0 -29 13 -53 13 -23 22 -49 19 -57 -8 -29 37 -15 49
15 6 16 20 30 32 30 12 0 11 -11 -3 -28 -18 -22 -18 -31 2 -38 14 -6 -3 -12
-39 -12 -79 -2 -88 -41 -10 -44 30 -2 63 -1 72 0 35 7 92 -21 88 -42 -3 -11 5
-25 18 -29 27 -11 47 125 22 150 -10 10 -18 55 -19 100 -1 87 -12 99 -52 59
-13 -13 -24 -15 -24 -5 0 16 -89 25 -360 36 -27 1 -56 10 -63 20 -24 34 -57
-9 -70 -90 -13 -80 -14 -81 -85 -70 -39 7 -75 21 -79 33 -3 11 -28 20 -55 20
-26 0 -48 9 -48 20 0 11 -20 20 -45 20 -35 -1 -38 -5 -16 -19 23 -14 24 -24 4
-48 -21 -24 -19 -33 8 -49 29 -15 24 -22 -30 -41 -68 -23 -63 -26 -181 115
-21 26 -101 62 -135 61 -31 0 -30 -3 5 -22 112 -61 214 -197 193 -256 -11 -32
-14 -63 -8 -69 6 -7 2 -12 -10 -12 -12 0 -38 -6 -57 -13 -28 -11 -32 -6 -21
22 7 20 3 48 -9 64 -18 21 -16 27 10 27 46 0 40 15 -31 86 -124 124 -210 143
-289 64 l-50 -51 -61 61 c-33 33 -73 60 -89 60 -22 0 -19 12 13 45 62 66 105
157 103 220 -1 30 7 55 17 55 11 0 19 23 19 50 l0 50 40 -40 c22 -22 49 -40
59 -40 11 0 15 -12 9 -27 -13 -35 36 -55 74 -31 19 12 20 17 4 18 -14 0 -20
14 -13 30 6 17 0 30 -13 30 -13 0 -19 13 -13 29 6 17 3 35 -8 42 -10 6 -19 2
-19 -10 0 -11 -9 -21 -20 -21 -11 0 -20 14 -20 30 0 17 -13 30 -30 30 -16 0
-30 17 -30 37 0 60 23 65 64 12 21 -27 51 -49 67 -49 28 0 77 -138 73 -206 -1
-24 10 -34 32 -30 19 4 34 15 35 26 0 11 11 38 24 60 21 34 23 27 14 -50 -6
-56 -3 -80 8 -63 15 23 20 23 29 0 6 -16 11 -9 12 16 1 24 11 47 23 51 11 3
-8 45 -42 91 -66 89 -64 100 7 62 39 -21 41 -20 18 8 -14 17 -58 37 -98 44
-54 11 -66 19 -45 32 18 12 20 19 5 19 -13 0 -29 -9 -36 -20 -7 -11 -29 -20
-50 -20 -39 0 -72 65 -50 100 7 11 0 20 -15 20 -16 0 -49 23 -75 50 -35 38
-39 50 -16 50 54 0 156 -43 145 -62 -6 -10 3 -18 20 -18 17 0 31 -13 31 -28 0
-37 63 -60 81 -30 9 14 -9 44 -43 73 -32 27 -54 56 -49 64 10 16 -87 71 -114
64 -8 -1 -13 4 -11 12 8 26 -47 113 -108 172 -33 31 -54 69 -48 85 7 19 -4 29
-34 31 -24 1 -62 4 -84 7 -177 22 -177 22 -180 -26 -3 -36 9 -49 53 -58 31 -6
51 -19 45 -28 -5 -10 17 -18 51 -18 41 0 61 -10 61 -30 0 -16 9 -30 19 -30 11
0 15 13 9 28 -23 59 29 48 90 -19 35 -38 55 -69 45 -69 -10 0 -23 -17 -28 -38
-15 -57 6 -142 35 -142 14 0 31 -13 37 -29 6 -17 -33 -1 -93 37 -57 37 -107
83 -111 103 -4 20 -18 47 -31 59 -33 34 -207 140 -178 109 14 -14 19 -49 12
-82 -9 -45 -4 -57 23 -57 19 0 45 -30 63 -71 16 -39 38 -65 49 -59 17 11 28
-30 21 -75 -4 -28 22 -15 59 30 38 46 49 33 40 -50 -2 -19 6 -35 18 -35 11 0
21 -13 21 -30 0 -16 14 -30 32 -30 21 0 28 -11 20 -32 -7 -17 -12 -38 -12 -46
0 -9 -20 -13 -45 -10 -25 2 -45 6 -45 8 0 2 -17 6 -37 10 -43 8 -70 30 -36 30
12 0 23 8 23 19 0 25 -188 6 -197 -19 -8 -24 -43 -6 -43 22 0 11 7 16 15 11 9
-5 37 2 63 16 l47 25 -45 32 c-24 17 -62 60 -83 94 -37 62 -133 52 -125 -12 2
-10 -13 -29 -32 -42 -19 -14 -46 -52 -60 -85 -14 -34 -31 -61 -39 -61 -8 0 -8
-43 1 -95 9 -52 16 -106 17 -120 0 -14 17 -25 36 -25 26 -1 28 -5 9 -17 -27
-18 -28 -163 0 -163 37 0 12 -36 -30 -44 -81 -16 -126 10 -86 49 60 60 24 233
-85 404 -58 92 -61 101 -27 113 66 25 326 201 337 229 6 15 25 21 44 15 27
-10 28 -7 8 15 -38 41 -30 106 17 146 61 53 19 91 -50 46 -28 -18 -74 -33
-103 -33 -59 0 -252 -84 -325 -141 -27 -22 -79 -39 -116 -39 -36 0 -71 -8 -77
-18 -17 -28 -89 -2 -120 42 -22 32 -35 35 -66 18 -22 -11 -44 -16 -50 -10 -6
6 -34 -12 -64 -39 -37 -34 -45 -52 -27 -59 17 -7 13 -11 -9 -12 -33 -2 -52
-42 -19 -42 8 0 15 -18 15 -40 0 -22 -7 -40 -16 -40 -10 0 -12 -9 -5 -20 7
-12 22 -15 34 -8 13 8 15 -2 7 -29 -16 -49 18 -59 37 -12 14 38 44 23 73 -37
21 -43 21 -43 -11 -4 -30 37 -34 37 -51 6 -16 -27 -32 -30 -83 -15 -35 10 -68
14 -73 9 -5 -6 1 -10 13 -10 13 0 18 -13 11 -30 -6 -16 -31 -30 -54 -30 -35
-1 -38 -4 -13 -20 17 -11 21 -20 10 -22 -90 -10 -129 -10 -119 0 7 7 23 12 36
12 12 0 23 14 23 30 0 17 20 52 44 79 24 26 39 56 34 65 -6 9 -2 16 7 16 25 0
27 224 2 253 -14 17 -4 33 36 54 49 25 58 25 78 -2 19 -26 34 -27 89 -8 53 18
73 18 98 -4 61 -51 79 -55 68 -13 -12 45 -126 112 -127 73 0 -13 -11 -9 -25 9
-42 56 -100 60 -174 14 -41 -25 -107 -44 -160 -46 -49 -2 -130 -19 -180 -39
-61 -24 -120 -31 -183 -24 -80 9 -99 4 -138 -38 -55 -59 -70 -61 -73 -10 -2
21 17 52 42 68 63 41 112 152 112 253 l0 83 71 -44 c40 -24 107 -61 149 -81
43 -21 87 -54 98 -73 12 -19 21 -28 21 -19 1 8 18 6 39 -5 29 -15 41 -13 49
10 24 60 -77 207 -143 208 -15 1 -20 11 -13 23 10 15 1 15 -29 -1 -34 -18 -42
-17 -42 8 0 41 -116 41 -169 0z m-131 -97 c0 -19 -156 -193 -210 -234 l-60
-46 43 49 c23 27 53 70 66 96 13 25 29 42 35 36 6 -6 33 16 60 48 46 55 66 70
66 51z m-20 -169 c0 -9 -18 -37 -40 -63 -21 -25 -36 -51 -32 -58 5 -6 -17 -14
-47 -16 -34 -2 -54 6 -54 23 0 15 12 23 27 17 33 -13 90 32 73 59 -7 10 0 27
15 37 36 22 58 23 58 1z m-798 -41 c-31 -24 -40 -41 -25 -50 33 -21 28 -91 -7
-105 -16 -6 -30 -24 -30 -39 0 -31 -42 -37 -71 -10 -28 26 -176 49 -161 25 7
-11 3 -26 -8 -33 -11 -7 -16 -21 -9 -31 6 -10 -3 -13 -20 -7 -57 22 28 134 86
113 18 -6 26 -4 18 5 -19 20 124 74 161 60 14 -5 24 2 22 15 -8 69 4 95 47 95
l45 -1 -48 -37z m-1363 -77 c-1 -22 -100 -91 -112 -79 -6 6 8 29 31 52 42 42
83 55 81 27z m2283 -40 c-19 -35 -69 -82 -122 -115 -15 -9 -1 20 31 66 59 83
131 122 91 49z m1354 2 l45 -12 -51 -27 c-64 -33 -122 -17 -88 24 26 32 30 32
94 15z m-4845 -110 c-38 -30 -59 -34 -86 -19 -35 21 -14 31 48 24 12 -1 28 12
35 29 6 17 21 26 33 19 12 -8 0 -29 -30 -53z m3309 24 c0 -49 -59 -83 -118
-67 -41 10 -39 15 32 58 93 57 86 56 86 9z m942 -10 c35 22 16 -22 -34 -79
-42 -47 -55 -53 -70 -30 -28 45 -21 63 22 52 32 -8 40 0 42 43 0 29 6 42 11
28 6 -14 19 -20 29 -14z m307 -16 c-21 -25 -25 -34 -9 -20 49 43 125 33 97
-13 -13 -21 -34 -36 -46 -33 -11 2 -14 1 -6 -4 31 -17 13 -65 -25 -67 -22 -2
-49 -5 -60 -8 -11 -3 -25 -6 -31 -7 -7 -2 3 -18 20 -35 30 -30 36 -30 72 3 21
19 39 25 39 13 0 -34 -120 -117 -214 -148 -63 -21 -79 -34 -66 -56 10 -15 12
-36 6 -46 -6 -10 1 -26 16 -36 20 -13 21 -17 3 -18 -14 0 -25 -13 -25 -30 0
-16 -13 -30 -28 -30 -15 0 -33 14 -39 30 -7 17 -26 30 -45 30 -21 0 -28 11
-20 32 7 17 12 40 12 50 0 10 14 18 30 18 36 0 40 53 5 65 -15 5 -6 19 23 34
42 22 47 22 36 -7 -10 -24 -1 -32 32 -30 24 0 33 6 19 11 -14 6 -25 22 -25 37
0 15 -11 32 -25 38 -20 10 -20 14 0 24 32 15 33 88 1 88 -13 0 7 22 44 50 48
36 74 44 92 28 19 -15 34 -7 59 31 18 28 47 51 64 51 26 0 25 -7 -6 -45z
m-3339 5 c7 -11 30 -20 52 -20 22 0 35 9 28 20 -7 11 -3 20 8 20 11 0 29 -16
40 -35 12 -19 21 -24 21 -10 1 14 17 25 36 25 30 -1 31 -3 5 -21 -24 -17 -20
-20 20 -17 62 5 123 -20 109 -44 -7 -10 -21 -13 -32 -6 -11 7 -58 16 -104 20
-155 14 -183 19 -208 35 -29 18 -33 53 -6 53 10 0 24 -9 31 -20z m1050 -77 c0
-9 43 -14 95 -12 l95 3 -65 -27 c-73 -31 -88 -58 -22 -40 32 8 18 -15 -54 -88
-54 -54 -111 -99 -128 -98 -38 0 -105 49 -89 64 6 7 3 28 -8 47 -37 67 40 158
141 166 19 1 35 -5 35 -15z m767 -13 c-10 -26 -5 -26 46 0 71 37 127 39 127 4
0 -39 -118 -153 -172 -166 -26 -7 -52 -29 -58 -49 -7 -22 -24 -32 -41 -26 -37
14 -37 45 1 86 16 18 32 55 35 82 3 27 19 60 35 73 39 32 41 32 27 -4z m2066
0 c0 -29 -21 -39 -62 -31 -11 2 -4 -13 15 -34 45 -50 48 -101 3 -64 -22 18
-37 19 -52 4 -32 -32 -1 -67 50 -54 24 6 66 2 93 -9 28 -11 40 -20 28 -21 -38
-2 -112 -78 -99 -100 8 -12 -1 -21 -18 -21 -17 0 -31 -9 -31 -20 0 -11 11 -20
23 -20 13 0 20 -4 14 -9 -25 -26 -100 17 -90 52 5 20 1 37 -9 37 -43 0 -18
183 34 251 55 72 101 90 101 39z m-5144 -21 c18 -19 31 -22 31 -9 0 12 9 17
20 10 30 -18 24 -70 -7 -70 -15 0 -50 -18 -78 -40 -64 -50 -74 -50 -61 -1 6
22 27 45 48 52 21 6 38 21 38 32 0 12 -13 16 -29 10 -19 -7 -25 -1 -18 18 14
36 17 36 56 -2z m1553 -9 c32 0 51 -11 51 -30 0 -21 -12 -27 -39 -18 -24 7
-34 4 -27 -8 20 -32 -125 -40 -152 -9 -17 21 -16 32 4 44 21 13 18 20 -11 28
-21 7 -2 8 42 3 44 -5 103 -10 132 -10z m5138 -71 c0 -38 -10 -49 -45 -47 -25
0 -34 6 -20 11 14 6 25 33 25 60 0 28 9 44 20 37 11 -7 20 -34 20 -61z m118
36 c-2 -8 -1 -22 1 -30 4 -15 6 -154 3 -195 -4 -44 -42 -17 -42 30 0 29 -12
50 -27 50 -22 0 -23 15 -6 80 17 64 80 122 71 65z m-1427 -127 c17 -27 -76
-118 -120 -118 -43 0 -39 14 24 80 61 64 76 70 96 38z m-1171 -80 c0 -9 -12
-27 -27 -42 -28 -28 -73 -105 -73 -126 0 -6 15 -9 33 -6 48 9 53 -66 5 -79
-35 -9 -36 -14 -10 -43 33 -36 12 -97 -26 -73 -12 7 -22 0 -22 -17 0 -26 -7
-26 -53 -2 -41 21 -61 22 -90 4 -30 -19 -32 -25 -9 -30 53 -11 48 -55 -10 -89
-59 -34 -77 -22 -34 21 27 27 22 34 -34 51 -43 13 -108 -16 -85 -39 8 -7 26
-4 41 9 37 30 38 -19 1 -53 -20 -19 -31 -18 -50 2 -34 37 -87 -10 -136 -118
-49 -111 -113 -182 -221 -243 -49 -29 -108 -66 -130 -83 -22 -17 -30 -19 -17
-5 24 29 13 103 -15 103 -10 0 -18 15 -18 32 0 25 6 28 26 11 29 -23 114 -9
114 19 0 10 19 18 42 18 70 0 182 132 171 201 -8 48 -2 59 28 59 45 0 78 96
41 119 -34 20 -5 81 39 81 20 0 42 9 49 20 22 36 70 23 55 -15 -12 -33 -11
-33 36 0 27 19 78 48 114 64 69 31 78 50 43 85 -15 15 -6 18 31 11 41 -8 49
-3 39 23 -8 21 -2 32 18 32 37 0 55 43 40 98 -8 30 -1 42 23 42 20 0 28 10 21
25 -7 14 1 8 19 -14 17 -21 31 -45 31 -53z m508 -33 c-11 -44 -30 -73 -45 -70
-14 4 -20 -3 -14 -14 34 -55 -13 -161 -71 -161 -47 0 -57 -8 -53 -43 3 -24 -8
-46 -25 -51 -24 -7 -24 -5 -3 10 21 15 20 21 -7 31 -18 7 -27 22 -20 33 13 21
-35 28 -55 8 -18 -18 7 -69 27 -57 21 13 21 -6 1 -57 -13 -32 -18 -32 -53 -4
-33 24 -33 28 -5 18 43 -15 46 18 4 53 -41 34 39 126 95 108 30 -10 36 0 36
61 0 40 8 68 17 62 21 -13 143 31 143 52 0 9 -7 15 -15 14 -68 -11 -73 45 -8
97 50 40 73 -2 51 -90z m1902 75 c22 -9 29 -19 15 -21 -49 -8 -55 -10 -83 -27
-19 -13 -24 -11 -14 5 8 13 5 23 -7 23 -11 0 -21 9 -21 20 0 24 54 24 110 0z
m-3664 -152 c-7 -18 0 -27 16 -24 16 4 30 -15 33 -44 6 -48 5 -49 -24 -11 -17
21 -31 28 -31 15 0 -38 -114 -29 -129 9 -17 46 24 87 49 48 9 -16 13 -36 8
-45 -6 -9 3 -16 19 -16 30 0 33 32 8 72 -18 29 2 48 36 35 14 -6 21 -23 15
-39z m2354 10 c0 -6 -19 -29 -41 -49 -41 -37 -159 -55 -159 -25 0 9 15 16 34
16 26 0 29 5 10 24 -42 42 -27 53 66 49 49 -1 90 -8 90 -15z m2169 -30 c19
-28 30 -56 25 -61 -12 -12 -94 73 -94 97 0 33 37 14 69 -36z m-2664 -15 c14 9
17 1 9 -21 -10 -24 -4 -32 19 -28 18 3 37 -5 41 -17 5 -15 -11 -22 -43 -18
-29 3 -57 -2 -63 -12 -6 -9 4 -17 21 -17 17 0 31 -10 31 -22 0 -12 -12 -18
-27 -12 -15 6 -56 -15 -90 -47 -82 -74 -84 -24 -3 68 33 38 61 90 62 116 0 26
6 36 11 22 6 -14 20 -19 32 -12z m-2036 -94 c-4 -35 2 -59 15 -59 13 0 17 -6
10 -13 -8 -7 -4 -25 9 -40 12 -15 14 -27 4 -27 -28 1 -59 28 -73 65 -7 21 -25
30 -43 23 -17 -7 -31 -2 -31 10 0 12 9 22 20 22 11 0 20 16 20 36 0 21 16 37
38 38 32 3 37 -8 31 -55z m-173 -37 c-14 -17 -27 -36 -30 -40 -3 -4 -19 4 -36
18 -25 20 -30 19 -30 -6 0 -18 9 -37 20 -44 30 -19 4 -50 -42 -50 -22 0 -35
-9 -28 -20 7 -11 4 -20 -7 -20 -10 0 -25 -24 -32 -53 -15 -60 17 -93 76 -79
24 6 33 0 26 -18 -6 -15 0 -32 13 -37 15 -6 12 -10 -7 -11 -17 -1 -41 8 -53
20 -28 28 -72 3 -58 -33 6 -15 1 -33 -9 -40 -11 -7 -18 0 -14 15 3 16 -10 23
-34 19 -35 -6 -36 -3 -10 29 18 22 19 30 4 21 -14 -9 -25 -6 -25 6 0 11 9 21
20 21 11 0 20 24 20 53 0 30 15 70 33 90 31 35 30 37 -20 37 -29 0 -52 -7 -51
-15 6 -33 -3 -47 -22 -35 -46 28 20 93 80 80 50 -11 62 -4 89 49 18 34 23 61
12 61 -12 0 -21 8 -21 17 0 9 13 16 29 16 16 0 25 -7 19 -16 -6 -9 4 -17 21
-17 17 0 31 15 31 32 0 27 5 28 30 8 25 -20 26 -32 6 -58z m2503 41 c-16 -5
-40 -24 -52 -41 -33 -45 -55 -15 -25 33 16 27 38 36 66 29 30 -8 33 -14 11
-21z m-2151 3 c8 -8 33 -15 56 -15 24 -1 46 -12 51 -26 5 -15 -9 -25 -32 -25
-22 0 -45 -8 -51 -17 -28 -44 -135 10 -145 72 -4 27 96 36 121 11z m-548 -46
c-12 -22 -48 -53 -81 -70 -50 -26 -59 -43 -59 -109 0 -77 -26 -120 -49 -83 -6
11 -3 25 9 32 28 18 25 50 -5 43 -14 -4 -18 -3 -10 2 28 16 15 49 -14 38 -17
-6 -35 -3 -42 8 -6 10 7 19 29 19 22 0 71 30 108 67 56 56 90 81 130 91 3 1
-4 -16 -16 -38z m4217 -49 c-7 -79 4 -96 67 -99 31 -1 48 -16 52 -47 4 -24 29
-61 55 -82 27 -22 49 -53 49 -69 0 -17 21 -48 46 -68 25 -20 52 -52 59 -71 8
-19 23 -35 34 -35 33 0 24 -54 -10 -68 -17 -6 -26 -4 -20 6 6 9 -26 41 -69 70
-44 29 -80 61 -80 71 0 29 -105 120 -124 109 -9 -6 -16 -1 -16 11 0 11 -12 21
-28 21 -15 0 -38 14 -52 30 -14 17 -42 30 -62 30 -51 0 -48 18 13 81 28 29 52
80 55 116 2 34 11 63 21 63 9 0 13 -31 10 -69z m-6967 -23 c-66 -53 -230 -135
-243 -122 -4 4 52 37 124 73 72 36 137 78 143 94 6 16 17 23 23 16 7 -7 -14
-34 -47 -61z m4950 36 c0 -9 -13 -34 -29 -55 -17 -22 -30 -63 -30 -92 -1 -33
-19 -64 -50 -85 -83 -54 -126 -30 -61 35 17 17 30 35 30 41 0 5 23 33 50 60
28 28 50 64 50 81 0 17 9 31 20 31 11 0 20 -7 20 -16z m-293 -51 c17 10 17 7
0 -12 -15 -17 -17 -45 -6 -86 10 -33 12 -55 5 -48 -7 7 -29 -2 -49 -20 -34
-31 -37 -31 -37 0 0 18 -8 33 -17 33 -10 0 -13 -21 -8 -48 10 -54 -14 -77 -55
-52 -24 15 -21 32 16 106 24 49 44 95 44 104 0 34 70 69 77 38 3 -15 17 -23
30 -15z m1013 24 c0 -9 -38 -17 -85 -17 -52 0 -75 7 -59 17 34 21 144 21 144
0z m-2680 -129 c-21 -43 -39 -67 -39 -53 -1 14 -14 25 -30 25 -18 0 -25 12
-19 29 6 16 26 24 45 18 27 -8 26 -6 -3 13 -28 18 -31 29 -13 51 13 16 32 24
41 18 10 -6 18 0 19 15 0 17 7 15 19 -6 13 -23 7 -56 -20 -110z m3150 86 c44
-27 62 -103 20 -87 -14 5 -36 -1 -49 -14 -18 -18 -20 -15 -11 10 7 19 3 53 -9
75 -25 47 -10 52 49 16z m-5214 -31 c4 -13 -14 -23 -44 -23 -54 0 -71 -30 -27
-46 16 -6 -4 -38 -54 -87 -44 -42 -58 -52 -32 -22 37 42 41 55 17 55 -17 0
-42 -14 -56 -30 -26 -32 -70 -27 -155 15 -25 12 -45 29 -45 38 0 26 109 20
136 -7 13 -13 30 -17 38 -9 8 9 2 24 -15 35 -20 14 -13 15 27 6 43 -10 55 -6
50 15 -15 67 138 125 160 60z m4612 25 c18 -7 26 -21 20 -32 -20 -31 79 -9
106 24 22 26 25 26 25 -5 1 -19 10 -35 21 -35 11 0 20 -8 20 -18 0 -10 -50
-18 -112 -19 -111 -2 -170 -26 -166 -70 1 -15 5 -14 11 2 6 14 24 25 40 25 17
0 24 -11 17 -25 -7 -14 -1 -10 14 7 28 34 196 47 196 15 0 -9 -27 -41 -59 -70
-33 -29 -56 -59 -51 -68 5 -8 -6 -13 -25 -12 -19 2 -36 -10 -38 -27 -1 -16 -3
-43 -5 -59 -1 -21 -10 -19 -33 10 -22 28 -35 32 -42 14 -6 -14 -16 -25 -24
-25 -22 0 -67 117 -53 140 24 39 -51 46 -82 8 -29 -36 -30 -35 -19 15 10 47 5
53 -38 48 -68 -7 -108 20 -76 52 19 19 25 19 25 1 0 -13 9 -24 20 -24 11 0 20
14 20 31 0 17 8 26 18 20 10 -6 23 3 30 20 6 18 20 26 30 20 10 -6 22 -4 27 4
5 8 6 4 2 -10 -3 -14 7 -25 23 -25 18 0 25 -13 18 -35 -8 -24 2 -19 33 15 24
28 53 47 64 44 11 -3 15 8 8 25 -13 35 -10 36 35 19z m-1028 -48 c0 -11 -11
-18 -24 -15 -32 7 -136 -197 -112 -221 26 -26 -21 -119 -66 -130 -38 -10 -87
30 -64 53 7 7 -1 13 -19 13 -17 0 -36 -15 -43 -32 -8 -21 -27 -29 -52 -22 -22
6 -35 2 -29 -8 6 -10 -9 -15 -35 -11 -25 5 -77 -5 -114 -20 -68 -28 -69 -27
-33 12 56 62 200 132 183 90 -9 -25 -4 -30 19 -21 18 6 41 12 52 12 11 0 14 8
8 18 -6 10 3 23 21 30 50 19 68 14 68 -19 0 -28 3 -29 30 -2 34 34 41 113 10
113 -11 0 -20 -13 -20 -30 0 -33 -12 -35 -70 -10 -25 11 -29 18 -11 19 37 1
141 101 141 134 0 14 12 21 27 15 15 -5 38 4 52 21 29 35 81 42 81 11z m2110
-60 c-10 -31 -4 -40 29 -40 22 0 41 -9 41 -20 0 -11 -18 -20 -40 -20 -22 0
-40 9 -40 20 0 11 -18 20 -40 20 -45 0 -51 21 -16 56 39 39 80 29 66 -16z
m-4336 6 c-22 -6 -32 -21 -26 -38 6 -16 -1 -28 -16 -28 -15 0 -33 -15 -40 -32
-8 -21 -27 -29 -53 -22 -34 9 -37 6 -17 -18 19 -24 18 -27 -9 -16 -18 7 -33
19 -33 28 0 17 -79 46 -110 41 -11 -2 -8 8 8 23 21 20 29 21 36 1 5 -14 23
-25 40 -25 19 0 26 11 19 30 -9 22 2 30 39 30 28 0 46 7 41 15 -5 8 28 16 74
18 46 1 67 -2 47 -7z m186 -76 c0 -38 -10 -70 -21 -70 -12 0 -16 9 -9 20 7 11
3 20 -9 20 -49 0 -21 81 34 98 3 1 5 -29 5 -68z m3463 -89 l-39 -86 -31 57
c-17 32 -32 49 -32 38 -2 -34 -101 -139 -101 -107 0 16 13 47 28 68 21 29 23
46 7 66 -19 21 -8 24 56 11 73 -13 77 -12 51 20 -16 18 -41 29 -57 23 -17 -7
-25 -1 -20 14 4 14 43 30 87 35 96 12 106 -15 51 -139z m219 56 c81 -85 99
-175 46 -219 -13 -11 -19 -38 -13 -60 5 -22 2 -38 -7 -36 -10 3 -34 -3 -54
-11 -20 -9 -42 -9 -50 -1 -8 9 -3 19 11 24 29 11 34 46 6 46 -11 0 -28 -29
-38 -65 l-18 -65 0 81 c0 79 2 81 58 73 l58 -9 -6 105 c-4 64 -18 113 -37 127
-32 24 -65 93 -45 93 6 0 47 -37 89 -83z m738 -20 c0 -30 -38 -57 -82 -57 -33
0 -19 97 17 117 38 22 64 -3 65 -60z m-4580 -21 c-45 -17 -45 -18 -8 -54 23
-22 43 -28 51 -16 17 26 83 1 67 -26 -7 -11 -28 -20 -47 -20 -19 0 -46 -11
-58 -23 -18 -18 -27 -16 -36 10 -7 18 -21 28 -31 22 -10 -7 -24 4 -32 23 -14
39 87 134 121 114 11 -7 -1 -20 -27 -30z m-336 -21 c-4 -24 4 -31 25 -22 21 8
28 2 21 -16 -6 -15 -33 -28 -60 -30 -55 -3 -63 12 -26 49 19 19 19 24 0 24
-13 0 -24 10 -24 21 0 12 16 19 35 15 20 -4 33 -22 29 -41z m2525 -40 c-15
-52 -67 -99 -92 -83 -15 9 78 128 99 128 4 0 1 -20 -7 -45z m1963 -4 c15 -60
-3 -93 -43 -78 -36 14 -113 -50 -96 -78 7 -11 1 -16 -14 -11 -46 15 -60 107
-16 107 20 0 37 -9 38 -20 0 -12 13 -4 29 17 24 31 24 45 5 69 -21 26 -19 28
10 17 19 -7 35 -4 35 7 0 40 40 17 52 -30z m-4692 2 c0 -4 -31 -41 -70 -82
-38 -40 -70 -86 -70 -102 0 -33 -87 -81 -216 -120 -122 -37 -123 -28 -4 53 55
37 100 75 100 82 0 8 26 28 57 44 31 17 78 53 105 81 41 42 98 68 98 44z
m4103 -78 c2 -36 4 -88 6 -115 1 -28 9 -61 18 -75 9 -14 6 -25 -6 -25 -11 0
-21 -22 -21 -50 0 -62 -39 -67 -42 -5 -2 44 -2 44 -15 -3 -8 -26 -35 -62 -61
-79 -46 -31 -47 -30 -32 18 9 27 16 60 16 72 1 13 22 35 47 49 26 14 47 37 47
53 0 15 -8 22 -18 16 -28 -17 -46 124 -22 169 34 63 80 50 83 -25z m705 -65
c13 -11 31 -36 38 -56 17 -44 -42 -72 -68 -32 -9 15 -18 20 -18 11 0 -10 -13
-7 -30 7 -16 13 -45 18 -64 11 -19 -7 -28 -7 -21 1 8 8 4 27 -8 42 -19 23 -14
24 31 7 35 -14 50 -14 42 -1 -7 11 -3 20 9 20 11 0 21 17 21 37 0 56 29 73 36
20 4 -26 18 -56 32 -67z m-2522 -5 c-12 -32 -10 -32 23 -5 35 28 36 28 9 -15
-15 -25 -34 -46 -43 -47 -8 -2 -23 -4 -33 -5 -10 -2 -25 -10 -34 -18 -22 -23
-68 -18 -68 7 0 12 18 26 40 32 22 6 40 24 40 40 0 15 8 23 19 17 10 -6 24 -3
31 9 20 32 30 23 16 -15z m-277 -115 c-43 -38 -99 -69 -124 -70 -63 0 -57 11
35 62 44 25 80 52 80 60 0 16 64 35 79 24 5 -4 -27 -38 -70 -76z m2331 -69 c0
-20 -15 -48 -34 -64 -29 -23 -31 -23 -18 3 9 17 -6 4 -33 -28 -29 -35 -54 -50
-62 -37 -7 11 2 26 19 33 21 8 27 25 19 46 -9 23 3 46 32 69 52 38 77 31 77
-22z m73 -9 c-32 -49 -26 -122 9 -101 10 6 18 2 18 -10 0 -11 -13 -21 -30 -21
-16 0 -30 -8 -30 -18 0 -9 -19 -22 -43 -29 -35 -9 -39 -17 -20 -39 18 -22 17
-34 -5 -52 -20 -17 -32 -18 -42 -2 -10 16 -22 15 -42 -1 -19 -17 -28 -17 -28
-2 0 12 22 37 50 55 27 18 44 42 37 53 -7 12 -4 15 8 8 23 -14 45 29 45 87 0
21 13 50 29 66 16 16 23 36 15 45 -8 8 -3 9 11 1 14 -8 25 -4 25 10 0 14 6 19
13 12 7 -7 -2 -35 -20 -62z m1847 11 c-1 -33 -36 -61 -90 -74 -49 -11 -55 -9
-36 12 20 20 17 32 -10 54 -31 26 -30 27 11 18 25 -5 45 -2 45 7 0 9 18 12 40
6 22 -6 40 -16 40 -23z m-645 -10 c39 -24 29 -50 -14 -39 -40 10 -47 -4 -68
-134 -4 -29 -9 -16 -10 34 -2 46 6 89 17 96 11 7 20 21 20 32 0 11 -9 15 -20
8 -11 -7 -20 -3 -20 9 0 23 55 19 95 -6z m-7315 -2 c0 -4 -26 -21 -57 -37 -65
-32 -155 -7 -100 28 27 18 157 25 157 9z"/>
<path d="M5246 1185 c-6 -19 -24 -49 -38 -66 -23 -27 -16 -31 57 -34 51 -2 74
3 58 13 -32 20 -30 42 12 87 29 33 27 35 -23 35 -33 0 -58 -13 -66 -35z"/>
<path d="M8320 2099 c0 -12 -7 -17 -15 -12 -9 5 -37 -2 -64 -16 l-48 -26 45
-14 c24 -8 56 -5 70 7 14 12 31 16 37 10 7 -7 7 7 1 30 -11 45 -26 56 -26 21z"/>
<path d="M8775 1975 c8 -30 14 -32 28 -12 14 22 21 22 39 -3 15 -22 24 -23 31
-6 7 17 24 18 60 5 63 -24 58 -25 61 19 3 34 -11 38 -113 37 -105 -1 -115 -4
-106 -40z"/>
<path d="M2835 1964 c-13 -49 29 -85 61 -52 13 15 24 40 24 57 0 43 -73 39
-85 -5z"/>
<path d="M2140 1850 c-13 -16 -32 -25 -41 -20 -38 24 -277 29 -291 7 -10 -16
-1 -20 29 -12 24 6 48 3 54 -7 24 -39 246 -21 269 22 25 47 15 52 -20 10z"/>
<path d="M6403 1805 c35 -45 85 -84 95 -74 16 17 -61 109 -91 109 -27 0 -28
-5 -4 -35z"/>
<path d="M7320 1818 c0 -13 -33 -19 -85 -15 -47 4 -87 -2 -90 -13 -3 -11 3
-20 13 -20 10 0 25 -6 33 -14 8 -8 31 -6 52 5 27 15 37 14 37 -5 1 -20 4 -20
18 1 9 14 24 25 34 24 10 -2 21 11 24 28 4 17 -3 31 -15 31 -11 0 -21 -10 -21
-22z"/>
<path d="M7389 1799 c-6 -10 -6 -19 1 -19 7 0 -3 -26 -21 -57 -31 -52 -31 -61
-2 -115 22 -40 32 -47 32 -23 1 19 15 35 31 35 17 0 30 9 30 20 0 11 -13 20
-30 20 -37 0 -38 15 -3 50 17 17 37 20 55 8 22 -14 19 -18 -12 -18 -37 -1 -38
-3 -6 -27 33 -25 33 -29 -5 -69 -49 -53 -49 -66 2 -131 23 -29 32 -53 20 -53
-11 0 -22 11 -22 25 -1 14 -9 7 -18 -15 -13 -34 -22 -26 -60 60 -52 114 -98
174 -124 158 -9 -6 -17 4 -17 21 0 36 -90 44 -111 10 -20 -33 6 -48 38 -21 22
18 31 16 40 -7 6 -17 24 -31 40 -31 15 0 40 -15 56 -34 18 -23 19 -29 2 -19
-14 9 -25 6 -25 -5 0 -11 16 -29 35 -40 19 -10 28 -26 20 -34 -8 -8 -33 2 -55
22 -22 20 -40 26 -40 14 0 -12 9 -27 20 -34 11 -7 20 -28 20 -48 0 -42 92 -92
111 -60 8 13 21 13 39 -2 19 -15 30 -16 40 -1 20 33 47 6 36 -37 -17 -65 29
-65 62 0 23 46 26 73 11 101 -24 44 -10 77 33 77 30 0 23 70 -15 144 -24 46
-22 52 18 62 19 5 6 10 -30 12 -36 1 -65 10 -65 20 0 10 -19 13 -43 7 -27 -7
-39 -4 -30 10 7 11 0 26 -16 32 -17 6 -35 3 -42 -8z m196 -189 c6 -34 1 -50
-18 -50 -17 0 -27 23 -27 61 0 71 31 63 45 -11z"/>
<path d="M1530 1780 c7 -11 35 -20 62 -20 28 0 45 -8 39 -19 -6 -10 -3 -24 9
-31 11 -7 20 -3 20 10 0 15 11 15 40 0 22 -12 40 -14 40 -4 0 57 120 -5 132
-68 13 -73 30 -84 66 -41 17 21 15 34 -8 53 -43 35 -37 60 13 60 70 0 27 23
-57 30 -42 4 -76 9 -76 11 0 4 -39 10 -196 28 -63 8 -92 5 -84 -9z"/>
<path d="M247 1617 c-31 -34 -31 -37 0 -37 18 0 33 -9 33 -20 0 -11 -13 -20
-29 -20 -38 0 -54 -29 -39 -68 9 -23 39 -32 105 -32 64 1 84 6 64 19 -25 16
-25 23 0 53 27 32 25 34 -21 22 -45 -11 -46 -9 -15 14 19 15 35 36 35 47 0 12
19 16 44 10 42 -11 42 -12 5 -25 -37 -13 -37 -15 6 -28 56 -18 85 -1 85 49 0
25 -10 34 -29 27 -16 -7 -40 -5 -53 3 -50 31 -157 23 -191 -14z"/>
<path d="M1713 1538 c-34 -39 -34 -46 -5 -75 29 -29 32 -29 32 4 0 33 4 33 58
-6 46 -33 60 -35 69 -13 6 17 -6 32 -30 39 -25 6 -35 19 -26 34 8 13 2 31 -13
41 -39 25 -45 23 -85 -24z"/>
<path d="M2535 1428 c-7 -7 -5 -33 5 -58 10 -25 12 -51 5 -58 -6 -7 3 -12 22
-12 18 0 33 -9 33 -20 0 -11 -20 -20 -45 -20 -36 0 -30 -8 30 -40 82 -44 103
-49 86 -22 -6 10 0 23 14 29 19 7 18 15 -5 31 -16 12 -21 22 -10 23 11 1 2 9
-20 17 -22 9 -41 24 -43 34 -12 83 -44 125 -72 96z"/>
<path d="M4433 1370 c6 -16 2 -30 -9 -30 -13 0 -13 -21 2 -60 24 -62 62 -79
82 -35 6 14 9 3 6 -25 -3 -29 -16 -48 -31 -45 -14 4 -20 -3 -13 -15 7 -11 -3
-20 -23 -20 -29 0 -30 -4 -8 -25 21 -20 28 -20 35 0 5 14 27 25 49 25 59 0 33
-49 -30 -56 -29 -4 -53 -16 -53 -27 0 -12 12 -17 27 -11 19 8 24 -4 17 -40 -5
-29 -27 -56 -50 -62 -39 -10 -39 -11 -2 -38 30 -22 33 -34 14 -63 -25 -41 -2
-95 32 -74 12 7 22 30 22 51 0 21 18 50 40 66 22 15 34 34 27 41 -8 7 -1 13
15 13 22 1 23 4 2 17 -33 21 -9 83 33 85 20 1 23 5 9 11 -17 7 -21 38 -12 101
11 86 10 90 -31 77 -45 -14 -62 18 -18 36 14 5 1 11 -28 11 -40 2 -58 16 -74
62 -12 33 -26 60 -31 60 -6 0 -6 -13 1 -30z"/>
<path d="M6920 1339 c0 -25 83 -59 108 -44 21 13 -44 65 -82 65 -14 0 -26 -9
-26 -21z"/>
<path d="M7240 1300 c0 -25 -13 -40 -35 -40 -26 0 -20 -10 22 -38 32 -21 75
-33 98 -26 33 8 39 3 29 -23 -15 -39 2 -93 29 -93 11 0 14 18 7 40 -10 31 -4
40 29 40 102 0 10 71 -101 78 -24 1 -38 12 -32 27 5 14 21 22 35 19 21 -5 21
-1 0 25 -36 44 -81 39 -81 -9z"/>
<path d="M7422 1285 c54 -61 84 -86 93 -77 9 10 -109 132 -127 132 -8 0 7 -25
34 -55z"/>
<path d="M7840 1257 c0 -13 6 -18 13 -11 7 8 25 4 40 -9 15 -12 54 -17 89 -10
34 7 79 3 100 -8 27 -15 38 -14 38 3 0 17 8 16 30 -2 25 -21 30 -18 30 13 0
33 -19 38 -170 43 -122 4 -170 -1 -170 -19z"/>
<path d="M2234 1220 c-11 -42 62 -77 105 -51 11 7 21 4 21 -8 0 -11 15 -21 32
-21 27 0 28 5 8 30 -14 17 -42 30 -63 30 -21 0 -43 14 -50 30 -16 42 -40 37
-53 -10z"/>
<path d="M2440 1189 c0 -34 86 -75 97 -45 7 18 -53 74 -82 75 -8 1 -15 -13
-15 -30z"/>
<path d="M6875 1167 c35 -19 71 -28 78 -21 20 20 6 28 -73 42 l-70 12 65 -33z"/>
<path d="M2275 1125 c-19 -4 -35 -17 -35 -28 0 -11 11 -17 25 -12 14 5 35 -5
47 -21 12 -16 33 -26 47 -21 39 13 -42 93 -84 82z"/>
<path d="M2069 1034 c-17 -43 5 -74 52 -74 50 0 50 24 -1 70 -35 32 -40 32
-51 4z"/>
<path d="M0 1000 c0 -41 26 -33 118 34 5 3 -20 6 -55 6 -50 0 -63 -8 -63 -40z"/>
<path d="M998 1005 c-2 -8 -2 -22 0 -30 1 -8 -7 -15 -18 -15 -36 0 -21 -60 15
-62 21 -1 25 -5 10 -11 -44 -18 -27 -47 27 -47 38 0 49 8 41 30 -7 18 0 30 18
30 41 0 36 35 -6 47 -19 6 4 6 53 0 61 -8 83 -5 73 11 -7 12 -44 22 -82 22
-38 0 -69 9 -69 20 0 23 -59 28 -62 5z"/>
<path d="M880 728 c0 -35 30 -51 67 -36 24 9 26 17 8 36 -30 33 -75 32 -75 0z"/>
<path d="M6160 622 c0 -23 58 -70 71 -58 18 18 -15 76 -43 76 -15 0 -28 -8
-28 -18z"/>
<path d="M2900 530 c0 -16 17 -30 39 -30 50 0 70 32 29 48 -50 19 -68 14 -68
-18z"/>
<path d="M3464 516 c-13 -13 -24 -35 -24 -48 0 -27 117 -49 132 -25 6 10 -5
17 -25 17 -27 0 -30 5 -11 24 13 13 24 31 24 40 0 25 -69 19 -96 -8z"/>
<path d="M4038 507 c-2 -9 -2 -21 -2 -27 0 -5 -44 -12 -98 -14 -57 -2 -94 5
-87 15 6 11 -3 19 -20 19 -48 0 -40 -93 9 -106 22 -6 35 -2 29 8 -6 10 2 18
18 18 16 0 33 -7 36 -16 21 -49 193 0 202 58 4 32 1 58 -8 58 -10 0 -17 -10
-17 -22 0 -16 -9 -15 -30 2 -16 14 -31 17 -32 7z"/>
<path d="M3280 429 c0 -50 -5 -53 -65 -42 -43 9 -55 7 -36 -5 29 -20 -99 -56
-156 -45 -15 3 -22 -3 -15 -14 14 -22 -80 -50 -109 -32 -10 6 -29 5 -41 -2
-16 -10 -15 -18 2 -29 39 -24 4 -60 -57 -60 -32 0 -81 -24 -120 -60 -75 -69
-181 -128 -198 -111 -7 6 -3 11 9 11 11 0 42 19 68 43 36 33 39 40 11 30 -20
-7 -65 -13 -100 -13 -37 0 -87 -20 -123 -49 l-60 -50 263 3 c198 1 261 8 254
26 -7 19 14 20 93 5 124 -25 259 27 214 84 -13 16 3 9 36 -16 46 -36 61 -40
66 -18 6 32 324 25 346 -8 14 -23 81 1 67 25 -6 9 12 23 40 30 29 7 45 21 38
34 -9 13 -1 16 20 8 21 -8 33 -3 33 14 0 15 -18 32 -40 38 -25 6 -40 0 -40
-16 0 -21 -41 -50 -70 -50 -4 0 -3 23 2 52 7 39 0 54 -31 62 -42 11 -72 72
-52 105 19 30 -125 62 -183 39 -41 -15 -48 -13 -39 11 6 16 3 35 -8 42 -10 6
-19 -13 -19 -42z m153 -57 c0 -17 -20 -26 -56 -25 -57 3 -69 14 -44 40 25 24
100 13 100 -15z m-221 -84 c-7 -17 -12 -40 -12 -50 0 -10 -21 -18 -48 -18 -52
0 -100 -44 -77 -70 8 -9 4 -10 -10 -2 -17 10 -25 0 -25 -29 0 -29 -9 -40 -28
-33 -15 6 -37 1 -50 -12 -16 -16 -22 -16 -22 2 0 13 9 24 20 24 11 0 20 9 20
21 0 38 109 159 144 159 18 0 39 9 46 20 20 33 55 23 42 -12z m104 -81 c-14
-30 -38 -58 -53 -63 -17 -5 -10 21 20 73 50 88 77 80 33 -10z m-436 -65 c0 -9
-27 -28 -59 -42 -33 -13 -58 -33 -55 -45 2 -11 -30 -23 -72 -27 -98 -9 -83 12
44 61 56 22 102 47 102 55 0 9 9 16 20 16 11 0 20 -8 20 -18z"/>
<path d="M256 414 c-14 -15 -38 -23 -52 -19 -14 5 -23 -3 -20 -16 3 -14 -16
-32 -44 -40 -51 -15 -22 -27 48 -20 21 3 44 -6 52 -18 10 -17 35 -16 97 3 90
28 116 77 33 61 -36 -7 -50 -1 -50 21 0 45 -32 59 -64 28z"/>
<path d="M2826 341 c-34 -21 -69 -49 -77 -63 -9 -14 15 -7 52 16 38 22 82 45
98 50 17 5 21 14 9 21 -12 7 -48 -4 -82 -24z"/>
<path d="M3755 366 c-19 -5 -35 -17 -35 -26 0 -10 16 -27 35 -38 25 -15 27
-21 7 -21 -16 -1 -23 -6 -16 -13 14 -15 134 36 134 56 0 14 -70 59 -84 54 -3
-2 -22 -7 -41 -12z"/>
<path d="M7814 346 c-6 -10 -4 -30 5 -45 9 -14 9 -54 -1 -89 -15 -57 -14 -59
13 -23 16 21 29 57 29 80 -1 51 -31 102 -46 77z"/>
<path d="M8333 119 c-8 -40 -21 -57 -36 -47 -15 9 -18 5 -7 -12 13 -21 21 -19
40 6 19 26 29 28 51 8 22 -20 23 -19 3 8 -14 18 -19 48 -12 65 7 18 3 33 -7
33 -11 0 -26 -28 -32 -61z"/>
<path d="M8706 113 c8 -21 2 -39 -16 -46 -54 -20 20 -68 98 -62 91 7 57 42
-52 53 -8 1 -10 15 -4 30 6 15 0 35 -14 43 -17 11 -21 5 -12 -18z"/>
<path d="M3231 61 c-7 -11 -25 -14 -42 -8 -16 6 -29 1 -29 -12 0 -13 8 -18 19
-12 10 6 24 2 31 -10 15 -23 70 11 70 43 0 24 -35 23 -49 -1z"/>
<path d="M3440 41 c-27 -8 -70 -13 -95 -11 -25 2 -45 -4 -45 -13 0 -9 77 -16
170 -15 138 1 258 28 135 30 -19 0 -53 6 -75 12 -22 7 -62 5 -90 -3z"/>
</g>
</svg>
